<?xml version="1.0" standalone="no"?>
<!DOCTYPE svg PUBLIC "-//W3C//DTD SVG 1.1//EN" "http://www.w3.org/Graphics/SVG/1.1/DTD/svg11.dtd" >
<svg xmlns="http://www.w3.org/2000/svg" xmlns:xlink="http://www.w3.org/1999/xlink" version="1.1">
<metadata></metadata>
<defs>
<font id="torigamedium" horiz-adv-x="608" >
<font-face units-per-em="1000" ascent="800" descent="-200" />
<missing-glyph horiz-adv-x="385" />
<glyph unicode="&#xfb01;" horiz-adv-x="546" d="M442 699q53 -19 41 -56q-4 -15 -18 -21.5t-29 0.5q-67 28 -143 28q-45 0 -68 -18q-26 -21 -26 -74v-58h235q17 0 28 -10t11 -26v-1v-1v-431q0 -17 -11 -29t-29 -12t-29 12t-11 29v396h-194v-396q0 -17 -11.5 -29t-29.5 -12t-30 12t-12 29v396h-43q-17 0 -28 10.5 t-11 26.5t11 26t28 10h43v60q0 84 45.5 126.5t124.5 42.5q72 0 156 -30z" />
<glyph unicode="&#xfb02;" horiz-adv-x="598" d="M562 38q4 -14 -1 -26.5t-15 -16.5q-15 -5 -42 -5q-48 0 -78.5 27.5t-30.5 79.5v540q-45 14 -98 14q-48 0 -72 -19q-26 -21 -26 -74v-58h96q16 0 27 -10t11 -26t-11 -26.5t-27 -10.5h-96v-396q0 -17 -11.5 -29t-29.5 -12t-30 12t-12 29v396h-43q-17 0 -28 10.5t-11 26.5 t11 26t28 10h43v60q0 84 45.5 126.5t124.5 42.5q72 0 145 -26q35 -12 42 -35q2 -8 2 -13v-545q0 -25 6.5 -36t25.5 -11h9q41 0 46 -25z" />
<glyph horiz-adv-x="0" />
<glyph horiz-adv-x="333" />
<glyph unicode=" "  horiz-adv-x="385" />
<glyph unicode="&#x09;" horiz-adv-x="385" />
<glyph unicode="&#xa0;" horiz-adv-x="385" />
<glyph unicode="!" horiz-adv-x="292" d="M146 222q-18 0 -29.5 12t-11.5 28v427q0 16 11.5 28t29.5 12t30 -12t12 -28v-427q0 -16 -12 -28t-30 -12zM145 -10q-25 0 -39.5 14.5t-14.5 40.5q0 54 54 54q56 0 56 -54q0 -26 -15 -40.5t-41 -14.5z" />
<glyph unicode="&#x22;" horiz-adv-x="408" d="M136 491q-22 0 -24 24l-11 180q-1 14 9.5 24t25.5 10t25.5 -10t9.5 -24l-11 -180q-2 -24 -24 -24zM272 491q-22 0 -24 24l-11 180q-1 14 9.5 24t25.5 10t25.5 -10t9.5 -24l-11 -180q-2 -24 -24 -24z" />
<glyph unicode="#" horiz-adv-x="810" d="M711 442h-130l-32 -184h136q14 0 24 -10t10 -25t-10 -24.5t-24 -9.5h-148l-30 -174q-2 -13 -14 -21.5t-26 -5.5q-15 2 -23 14t-6 26l28 161h-189l-30 -174q-2 -13 -14 -21.5t-26 -5.5q-15 2 -23.5 14t-5.5 26l28 161h-107q-14 0 -24.5 9.5t-10.5 24.5t10.5 25t24.5 10 h119l32 184h-125q-14 0 -24 9.5t-10 24.5t10 25t24 10h137l31 177q2 13 14 21.5t26 5.5q15 -2 23 -14t6 -26l-29 -164h189l31 177q3 13 15 21.5t26 5.5q14 -2 22 -14t6 -26l-29 -164h118q14 0 24 -10t10 -25t-10 -24.5t-24 -9.5zM478 258l32 184h-189l-32 -184h189z" />
<glyph unicode="$" horiz-adv-x="603" d="M542 192q0 -86 -54.5 -139.5t-150.5 -61.5v-77q0 -13 -9 -22t-22 -9t-22 9t-9 22v77q-123 6 -189 65q-12 10 -13 25t10 27q25 25 56 3q53 -39 136 -43v270q-107 20 -157 64t-50 121q0 88 54.5 137.5t152.5 51.5v73q0 13 9 22t22 9t22 -9t9 -22v-76q92 -12 156 -57 q22 -16 8 -43q-18 -34 -55 -12q-50 34 -109 39v-235q104 -25 154.5 -76t50.5 -133zM145 521q0 -41 29.5 -66t100.5 -41v224q-130 -6 -130 -117zM337 69q62 8 95.5 40t33.5 84q0 50 -30.5 81.5t-98.5 50.5v-256z" />
<glyph unicode="%" horiz-adv-x="948" d="M216 396q-64 0 -100 48.5t-36 135.5q0 85 36 134.5t98 49.5q66 0 103 -49t37 -135q0 -87 -36 -135.5t-102 -48.5zM240 -9q-12 7 -15 21t5 26l419 691q7 12 20.5 15.5t25.5 -4.5q12 -7 15 -20.5t-4 -25.5l-420 -691q-7 -12 -20 -16t-26 4zM216 459q80 0 80 121 q0 60 -21 91t-60 30q-76 -2 -76 -121q0 -121 77 -121zM732 -10q-65 0 -101 48.5t-36 135.5q0 85 36.5 134.5t98.5 49.5q65 0 102 -49t37 -135q0 -87 -36 -135.5t-101 -48.5zM732 53q79 0 79 121q0 60 -21 91t-59 30q-77 -2 -77 -121q0 -121 78 -121z" />
<glyph unicode="&#x26;" horiz-adv-x="853" d="M367 -12q-123 -11 -195 39t-81 154q-7 74 48.5 155t158.5 154q-67 79 -73 144q-6 69 36 118.5t112 55.5q67 6 114 -29t52 -93q5 -60 -25 -109t-104 -108l223 -245q59 70 77 129q9 28 33 29q14 2 26.5 -8t13.5 -25q1 -26 -29 -80t-71 -100l110 -120q9 -9 9 -24t-9 -25 q-12 -12 -28 -11.5t-27 13.5l-110 118q-129 -120 -261 -132zM358 526q49 29 81 68.5t28 76.5q-3 35 -28.5 56t-62.5 18q-38 -3 -60.5 -34t-17.5 -72q7 -59 60 -113zM356 60q59 5 111 31.5t115 81.5l-234 259q-85 -54 -133.5 -117.5t-44.5 -118.5q4 -73 54 -108.5t132 -27.5z " />
<glyph unicode="'" horiz-adv-x="272" d="M136 491q-22 0 -24 24l-11 180q-1 14 9.5 24t25.5 10t25.5 -10t9.5 -24l-11 -180q-2 -24 -24 -24z" />
<glyph unicode="(" horiz-adv-x="300" d="M66 275q0 135 33 259t79 197q11 16 27.5 19.5t29.5 -7.5q24 -24 6 -53q-42 -62 -70.5 -175t-28.5 -240t28.5 -240t70.5 -175q8 -12 6.5 -26.5t-11.5 -24.5q-13 -13 -30 -10t-28 19q-50 69 -81 195t-31 262z" />
<glyph unicode=")" horiz-adv-x="299" d="M234 275q0 -136 -31 -261.5t-81 -195.5q-12 -16 -29 -19t-30 10q-22 24 -4 51q41 62 70 175t29 240t-29 240t-70 175q-8 12 -7 27.5t12 25.5q14 11 30.5 7.5t27.5 -19.5q46 -72 79 -196.5t33 -259.5z" />
<glyph unicode="*" horiz-adv-x="402" d="M55 498q-12 23 11 34l104 50l-101 61q-21 15 -6 34q14 21 34 5l86 -69l-7 100q-1 11 6 19t18 8t18 -8t6 -19l-7 -100l87 70q18 16 35 -4q7 -8 4.5 -18.5t-11.5 -16.5l-101 -61l101 -49q9 -5 12.5 -15t-1.5 -19q-5 -10 -16 -12t-20 5l-90 60l7 -103q1 -11 -6 -19t-18 -8 t-18 8t-6 19l7 102l-93 -62q-9 -6 -19.5 -3.5t-15.5 11.5z" />
<glyph unicode="+" horiz-adv-x="591" d="M482 284q14 0 24.5 -10t10.5 -24q0 -15 -10.5 -25t-24.5 -10h-152v-153q0 -14 -10 -24t-25 -10t-25 10.5t-10 24.5v152h-152q-14 0 -24 10t-10 25q0 14 10 24t24 10h152v153q0 14 10 24t25 10t25 -10.5t10 -24.5v-152h152z" />
<glyph unicode="," horiz-adv-x="305" d="M84 -87q38 19 54 33.5t19 33.5q0 19 -21 22q-40 6 -40 54q0 26 15.5 40.5t43.5 14.5q56 0 57 -83q1 -65 -31.5 -99.5t-85.5 -37.5q-7 -1 -11.5 8t0.5 14z" />
<glyph unicode="-" horiz-adv-x="494" d="M70 265q0 16 11 26.5t28 10.5h277q16 0 27 -10.5t11 -26.5t-11 -26.5t-27 -10.5h-277q-17 0 -28 10.5t-11 26.5z" />
<glyph unicode="." horiz-adv-x="308" d="M154 -10q-26 0 -40.5 15t-14.5 40q0 54 55 54t55 -54q0 -26 -14.5 -40.5t-40.5 -14.5z" />
<glyph unicode="/" horiz-adv-x="406" d="M57 -33q-14 5 -20 18.5t-1 26.5l268 739q5 13 18 19t27 1t20 -18t1 -26l-268 -739q-5 -13 -18 -19.5t-27 -1.5z" />
<glyph unicode="0" horiz-adv-x="650" d="M329 -10q-126 0 -193.5 95t-67.5 266q0 166 68.5 263.5t187.5 97.5q127 0 196.5 -96.5t69.5 -264.5q0 -171 -67.5 -266t-193.5 -95zM329 74q91 0 136.5 71.5t45.5 205.5t-47.5 206t-137.5 70q-88 -1 -133.5 -73.5t-45.5 -202.5q0 -134 45.5 -205.5t136.5 -71.5z" />
<glyph unicode="1" horiz-adv-x="337" d="M204 712q18 0 30 -12.5t12 -29.5v-639q0 -17 -12 -29t-30 -12t-29.5 12t-11.5 29v579l-58 -27q-15 -7 -30.5 -1.5t-22.5 20.5q-7 16 -1 31t20 22l115 53l2 1l2 1q10 2 14 2z" />
<glyph unicode="2" horiz-adv-x="595" d="M502 77q16 0 27.5 -11t11.5 -27t-11 -27t-28 -11h-405q-17 0 -28 11t-11 27q0 11 7 22l3.5 3.5t3.5 4.5q48 49 110 105t103 92t80 76.5t58 78t19 76.5q0 68 -43.5 104.5t-115.5 36.5q-103 0 -155 -63q-34 -40 -63 -11q-26 26 2 56q85 93 214 93q106 0 172.5 -61 t66.5 -155q0 -44 -16.5 -85t-54.5 -85.5t-70 -75.5t-93.5 -86.5t-94.5 -87.5h311z" />
<glyph unicode="3" horiz-adv-x="555" d="M388 375q48 -23 76 -67t28 -102q0 -104 -58.5 -159.5t-169.5 -55.5q-152 0 -210 128q-6 13 -0.5 27t17.5 21q14 8 30.5 1.5t23.5 -22.5q36 -78 139 -78q81 0 116.5 34.5t35.5 109.5q0 54 -35.5 88.5t-108.5 34.5q-20 0 -30 18q-6 6 -6 17q0 34 42 36q57 4 88.5 34.5 t31.5 77.5q0 63 -31.5 93t-98.5 30q-89 0 -118 -69q-15 -32 -47 -23q-15 4 -22 18.5t0 31.5q21 55 70 84.5t117 29.5q99 0 151 -49t53 -143q0 -94 -84 -146z" />
<glyph unicode="4" horiz-adv-x="641" d="M555 230q16 0 27 -11t11 -27t-11 -27t-27 -11h-87v-128q0 -15 -11 -26.5t-28 -11.5t-28.5 11.5t-11.5 26.5v128l-303 1q-16 0 -27 11t-11 27q0 11 7 22l3 5l335 476q12 15 29 15q2 1 7 1q17 0 28 -11.5t11 -27.5v-443h87zM162 231l227 -1v323z" />
<glyph unicode="5" horiz-adv-x="620" d="M328 469q103 0 168.5 -64t65.5 -164q0 -122 -67 -186.5t-192 -64.5q-81 0 -141 35t-89 98q-10 19 -2.5 35.5t24.5 19.5q29 6 44 -21q39 -90 164 -90q94 0 138 41.5t44 130.5q0 70 -44.5 113.5t-116.5 43.5q-67 1 -109.5 -22t-67.5 -74q-6 -15 -27 -18q-2 -1 -6 -1 q-17 0 -28.5 11.5t-9.5 28.5l20 345q1 14 12.5 24t25.5 10h1h343q16 0 27.5 -11t11.5 -27t-11.5 -27t-27.5 -11h-307l-13 -209q63 54 170 54z" />
<glyph unicode="6" horiz-adv-x="611" d="M331 460q89 0 154.5 -65t65.5 -174q0 -100 -68.5 -165t-158.5 -65q-76 0 -139 43.5t-86 115.5l-1 -1q-31 85 -30 203q8 362 262 362q61 1 101 -17t74 -53q17 -16 17 -34t-14 -26q-30 -22 -57 7q-39 45 -120 47q-91 2 -134.5 -64.5t-48.5 -201.5q74 88 183 88zM324 64 q60 0 107 44t47 114q0 77 -45.5 121.5t-108.5 44.5q-69 0 -116 -43.5t-46 -122.5q1 -72 48.5 -115t113.5 -43z" />
<glyph unicode="7" horiz-adv-x="552" d="M503 662q0 -5 -2 -13l-3 -7l-292 -630q-7 -15 -22.5 -20.5t-32.5 1.5q-17 8 -22 24t2 30l267 577h-310q-17 0 -28.5 11t-11.5 27t11.5 27t28.5 11h374q17 0 29 -11t12 -27z" />
<glyph unicode="8" horiz-adv-x="620" d="M421 383q63 -22 100.5 -70t37.5 -124q0 -95 -70.5 -147t-174.5 -52q-105 0 -175.5 52.5t-70.5 148.5q0 75 38 123t101 69q-106 41 -106 154q0 81 61.5 128t151.5 47t151.5 -47t61.5 -128q0 -113 -106 -154zM314 640q-57 0 -96.5 -28.5t-39.5 -79.5q0 -55 40.5 -89 t95.5 -34q56 0 96 33.5t40 89.5q0 51 -39.5 79.5t-96.5 28.5zM314 64q71 0 120 35t49 103q0 69 -48.5 104.5t-120.5 35.5t-121 -35.5t-49 -104.5q0 -68 49 -103t121 -35z" />
<glyph unicode="9" horiz-adv-x="611" d="M521 556q33 -85 30 -203q-6 -362 -262 -363q-106 0 -175 71q-17 16 -17 34t14 27q28 21 57 -10q39 -46 120 -47q91 -2 134.5 65.5t49.5 203.5q-74 -89 -182 -89q-90 0 -156 65t-66 174q0 100 68.5 165t158.5 65q76 0 139 -43.5t86 -115.5zM295 317q69 0 116.5 43.5 t46.5 122.5q-1 72 -48.5 115t-114.5 43q-60 0 -106.5 -44t-46.5 -114q0 -77 45 -121.5t108 -44.5z" />
<glyph unicode=":" horiz-adv-x="291" d="M145 349q-25 0 -39.5 14.5t-14.5 39.5q0 55 54 55q55 0 55 -55q0 -26 -14.5 -40t-40.5 -14zM145 60q-25 0 -39.5 14t-14.5 40q0 55 54 55q55 0 55 -55q0 -26 -14.5 -40t-40.5 -14z" />
<glyph unicode=";" horiz-adv-x="298" d="M151 229q-25 0 -40 14.5t-15 39.5q0 55 55 55t55 -55q0 -25 -14.5 -39.5t-40.5 -14.5zM80 -87q40 21 55 34.5t18 32.5q1 19 -21 22q-39 6 -39 54q0 26 15.5 40.5t42.5 14.5q57 0 58 -83q1 -65 -31.5 -99.5t-85.5 -37.5q-7 -1 -11.5 8t-0.5 14z" />
<glyph unicode="&#x3c;" horiz-adv-x="633" d="M532 95q12 -6 17.5 -19t-0.5 -27q-7 -14 -20 -18.5t-25 1.5l-407 189l-7 4q-16 11 -16 29t16 29l7 4l406 189q12 6 26 1.5t20 -18.5t1 -27t-17 -18l-343 -160z" />
<glyph unicode="=" horiz-adv-x="649" d="M137 312q-14 0 -24 9.5t-10 24.5t10.5 25t24.5 10h374q14 0 24 -10t10 -25t-10 -24.5t-24 -9.5h-375zM137 138q-14 0 -24 10t-10 25t10 24.5t25 9.5h374q14 0 24 -9.5t10 -24.5t-10.5 -25t-24.5 -10h-374z" />
<glyph unicode="&#x3e;" horiz-adv-x="633" d="M557 264q4 -10 -0.5 -21.5t-13.5 -17.5l-7 -4l-407 -189q-12 -6 -25.5 -1.5t-19.5 18.5t-1 27t18 19l342 159l-343 160q-12 5 -17 18t1 27t19.5 18.5t26.5 -1.5l406 -189l7 -4q9 -5 14 -19z" />
<glyph unicode="?" horiz-adv-x="595" d="M285 744q107 -1 173.5 -53t66.5 -142q0 -45 -21 -82.5t-59 -64t-72.5 -43t-80.5 -32.5l-2 -88q-1 -15 -9 -25.5t-22 -11.5t-24 9t-12 24l-16 103q-3 17 9 31t31 15h2q199 57 199 160q0 63 -43 94t-118 31q-99 0 -150 -59q-16 -18 -33.5 -20.5t-30.5 12.5q-23 27 6 55 q82 87 206 87zM257 109q56 0 56 -54q0 -26 -15 -40.5t-41 -14.5q-25 0 -39.5 14.5t-14.5 40.5q0 54 54 54z" />
<glyph unicode="@" horiz-adv-x="908" d="M454 712q152 0 259 -106.5t107 -258.5q0 -101 -42 -178t-110 -77q-43 0 -70 25.5t-31 64.5q-1 2 -1 7v33q-42 -65 -126 -65q-88 0 -133.5 48t-45.5 140t46 140.5t133 48.5q81 0 126 -66v32q0 12 8 20t20 8t20 -8t8 -20v-306q0 -49 48 -49q42 0 69 61t27 141 q0 129 -91 220t-221 91t-220.5 -91t-90.5 -220q0 -130 90.5 -221t220.5 -91q44 0 78 10q24 5 34 -14q5 -13 -1 -24.5t-21 -15.5q-53 -11 -90 -11q-152 0 -259 107.5t-107 259.5q0 151 107 258t259 107zM445 211q100 0 121 73v121q-22 74 -121 74q-67 0 -98 -32t-31 -102 q0 -134 129 -134z" />
<glyph unicode="A" horiz-adv-x="703" d="M643 53q21 -49 -19 -60q-38 -12 -52 24l-62 149h-316l-61 -146q-16 -38 -54 -27q-18 4 -23 21t4 39l271 642q9 17 21 17q14 0 22 -17zM226 244h252l-126 304z" />
<glyph unicode="B" horiz-adv-x="631" d="M421 376q69 -14 110 -62t41 -120q-1 -105 -61 -149.5t-187 -44.5h-192q-15 0 -26 11t-11 27v625q0 15 11 26t26 11h167q221 0 221 -175q0 -110 -99 -149zM299 614h-119v-214h119q58 0 97.5 28.5t39.5 90.5q0 33 -12 53.5t-35.5 29t-42 10.5t-47.5 2zM488 200 q1 32 -9.5 56t-26.5 37.5t-39 22t-45.5 11.5t-48.5 3h-139v-244h144q32 0 48.5 1t42.5 6.5t39 17t23.5 34t10.5 55.5z" />
<glyph unicode="C" horiz-adv-x="701" d="M379 -10q-148 0 -229.5 92t-81.5 269q0 172 82.5 266.5t224.5 94.5q189 0 260 -148q7 -15 1 -30t-21 -23q-16 -8 -31.5 -1.5t-24.5 23.5q-26 49 -69 72t-111 23q-110 0 -169 -69t-59 -208q0 -278 228 -278q77 0 120.5 29t59.5 93q5 17 19.5 26.5t30.5 5.5q18 -4 26 -17 t4 -31q-45 -189 -260 -189z" />
<glyph unicode="D" horiz-adv-x="729" d="M359 700q152 0 226.5 -85.5t74.5 -259.5q0 -355 -301 -355h-227q-15 0 -26 11t-11 26v626q0 16 11 26.5t26 10.5h227zM359 82q112 0 166 66t54 207q0 137 -53.5 200.5t-166.5 63.5h-183v-537h183z" />
<glyph unicode="E" d="M511 81q17 0 28.5 -11t11.5 -29t-11.5 -29.5t-28.5 -11.5h-379q-15 0 -26 11t-11 26v626q0 16 11 26.5t26 10.5h379q17 0 28.5 -11.5t11.5 -29.5t-11.5 -29.5t-28.5 -11.5h-335v-222h282q17 0 28.5 -11t11.5 -28q0 -18 -11.5 -29t-28.5 -11h-282v-236h335z" />
<glyph unicode="F" d="M512 700q16 0 27.5 -11.5t11.5 -29.5t-11.5 -29.5t-27.5 -11.5h-336v-222h284q16 0 27 -11t11 -28t-11 -28.5t-27 -11.5h-284v-286q0 -16 -11 -27.5t-29 -11.5t-29.5 11.5t-11.5 27.5v632q0 16 11 26.5t26 10.5h380z" />
<glyph unicode="G" horiz-adv-x="712" d="M615 327q16 0 26.5 -11t10.5 -26v-263q0 -15 -10 -26t-25 -11t-25 11t-10 26v89q-24 -56 -78.5 -91t-125.5 -35q-146 0 -228 92.5t-82 268.5q0 172 82.5 266.5t224.5 94.5q189 0 260 -148q7 -15 1 -30t-20 -23q-14 -7 -31 -1t-27 23q-25 50 -67.5 72.5t-111.5 22.5 q-110 0 -169 -69t-59 -208q0 -278 228 -278q175 0 195 155l1 23h-103q-16 0 -27.5 11t-11.5 27t11.5 27t27.5 11h143z" />
<glyph unicode="H" horiz-adv-x="697" d="M600 703q18 0 29 -12t11 -29v-623q0 -17 -11 -29.5t-29 -12.5t-29.5 12.5t-11.5 29.5v278h-383v-278q0 -17 -11 -29.5t-29 -12.5t-29.5 12.5t-11.5 29.5v623q0 17 11.5 29t29.5 12t29 -12t11 -29v-266h383v266q0 17 11.5 29t29.5 12z" />
<glyph unicode="I" horiz-adv-x="234" d="M136 -10q-18 0 -29.5 12.5t-11.5 28.5v640q0 17 11.5 29t29.5 12t29 -12t11 -29v-640q0 -17 -11 -29t-29 -12z" />
<glyph unicode="J" horiz-adv-x="489" d="M236 -10q-145 0 -182 131q-8 33 25 44q16 5 29.5 -3t19.5 -26q13 -37 38.5 -53.5t69.5 -16.5q60 0 87.5 36.5t27.5 116.5v444q0 16 11.5 28t29.5 12q17 0 28.5 -12t11.5 -28v-453q0 -107 -50 -163.5t-146 -56.5z" />
<glyph unicode="K" horiz-adv-x="636" d="M573 52q12 -16 9.5 -31t-15.5 -25q-9 -9 -29 -7t-31 16l-261 316l-70 -74v-216q0 -17 -11 -29t-29 -12t-29.5 12.5t-11.5 28.5v640q0 17 11.5 29t29.5 12t29 -12t11 -29v-305l307 327q14 16 34.5 18.5t30.5 -6.5q14 -11 16 -27.5t-12 -32.5l-249 -264z" />
<glyph unicode="L" horiz-adv-x="607" d="M509 82q16 0 28.5 -11.5t12.5 -29.5t-12.5 -29.5t-28.5 -11.5h-375q-16 0 -27.5 11t-11.5 28v623q0 17 11.5 29t29.5 12t29 -12t11 -29v-580h333z" />
<glyph unicode="M" horiz-adv-x="885" d="M784 712q20 0 31.5 -11t11.5 -27v-642q0 -17 -11 -29.5t-29 -12.5t-29.5 12.5t-11.5 29.5v501l-241 -432q-12 -21 -36 -21h-14q-25 0 -37 21l-242 435v-504q0 -17 -11 -29.5t-29 -12.5t-29.5 12.5t-11.5 29.5v642q0 16 11 27t31 11q28 0 37 -16l288 -515l286 515 q10 16 36 16z" />
<glyph unicode="N" horiz-adv-x="737" d="M640 712q17 0 28.5 -12t11.5 -29v-636q0 -18 -13 -31.5t-34 -13.5q-27 0 -37 13l-421 566v-539q0 -16 -11 -28t-29 -12q-17 0 -28.5 12t-11.5 28v644q0 38 44 38q29 0 38 -12l423 -562v533q0 17 11 29t29 12z" />
<glyph unicode="O" horiz-adv-x="749" d="M378 -10q-153 0 -231.5 94t-78.5 267q0 167 80 264t225 97q154 0 234.5 -95.5t80.5 -265.5q0 -172 -78.5 -266.5t-231.5 -94.5zM378 76q117 0 175.5 71.5t58.5 203.5t-60.5 203.5t-176.5 71.5q-113 -1 -171.5 -74t-58.5 -201q0 -132 58.5 -203.5t174.5 -71.5z" />
<glyph unicode="P" horiz-adv-x="617" d="M306 700q252 0 252 -205q0 -208 -252 -208h-131v-256q0 -17 -11 -29t-29 -12t-29 12t-11 29v631q0 16 11.5 27t27.5 11h172zM306 366q93 0 134 31t41 98q0 66 -41 96.5t-134 30.5h-131v-256h131z" />
<glyph unicode="Q" horiz-adv-x="757" d="M673 -34q16 0 28 -11.5t12 -28.5q0 -16 -11.5 -25.5t-28.5 -9.5q-71 1 -119.5 26.5t-93.5 80.5q-42 -8 -82 -8q-153 0 -231.5 94t-78.5 267q0 167 80 264t225 97q154 0 234.5 -95.5t80.5 -265.5q0 -256 -165 -332q54 -53 150 -53zM145 351q0 -132 58.5 -203.5 t174.5 -71.5q117 0 175.5 71.5t58.5 203.5q0 133 -60.5 204.5t-176.5 70.5q-113 -1 -171.5 -74t-58.5 -201z" />
<glyph unicode="R" horiz-adv-x="644" d="M581 45q8 -13 4 -28.5t-19 -24.5q-15 -8 -30 -3t-23 19l-153 278q-34 -2 -52 -2h-132v-252q0 -17 -11 -29.5t-29 -12.5t-29.5 12.5t-11.5 29.5v630q0 16 11.5 27.5t27.5 11.5h174q254 0 254 -208q0 -145 -123 -189zM176 363h132q96 0 136.5 31t40.5 99t-41 99t-136 31 h-132v-260z" />
<glyph unicode="S" horiz-adv-x="603" d="M302 -10q-136 0 -217 67q-13 10 -13.5 26.5t10.5 28.5q27 27 59 3q59 -44 157 -44q78 -1 121.5 31.5t43.5 91.5q0 56 -43 89.5t-139 51.5q-110 20 -161 65t-51 123q1 91 58 140.5t160 48.5q125 0 208 -61q12 -9 13.5 -23.5t-7.5 -27.5q-21 -29 -56 -7q-35 23 -68.5 31.5 t-87.5 8.5q-139 2 -139 -113q0 -44 35.5 -69t124.5 -42q119 -23 176.5 -76.5t56.5 -140.5q0 -94 -64.5 -148.5t-176.5 -53.5z" />
<glyph unicode="T" horiz-adv-x="659" d="M585 700q18 0 30.5 -11t12.5 -28t-12.5 -28.5t-29.5 -11.5h-216v-589q0 -17 -11.5 -29.5t-28.5 -12.5t-28.5 12.5t-11.5 29.5v589h-216q-18 0 -30 11.5t-13 28.5q0 16 12.5 27.5t30.5 11.5h511z" />
<glyph unicode="U" horiz-adv-x="745" d="M392 -10q-151 0 -224 92t-73 278v311q0 16 11 28.5t28 12.5t28 -12.5t11 -28.5v-310q0 -151 51.5 -221t167.5 -70q115 0 167 70.5t52 220.5v310q0 16 10.5 28.5t27.5 12.5t28 -12t11 -29v-311q0 -370 -296 -370z" />
<glyph unicode="V" horiz-adv-x="743" d="M651 712q25 0 34.5 -18.5t-0.5 -41.5l-277 -636q-10 -26 -37 -26q-26 0 -36 26l-277 636q-10 23 -0.5 41.5t34.5 18.5q29 0 39 -23l241 -561l240 561q10 23 39 23z" />
<glyph unicode="W" horiz-adv-x="1014" d="M921 712q22 0 33 -16.5t5 -37.5l-191 -642q-9 -26 -37 -26q-27 0 -36 26l-187 510l-187 -510q-9 -26 -37 -26q-29 0 -36 26l-192 642q-6 22 2 38t30 16q33 0 40 -23l162 -536l177 476q12 29 41 29t41 -29l177 -478l161 538q8 23 34 23z" />
<glyph unicode="X" horiz-adv-x="680" d="M391 351l222 -285q20 -25 10.5 -50.5t-39.5 -25.5q-13 0 -22 11l-222 285l-221 -284q-8 -11 -23 -11q-29 0 -38.5 25.5t10.5 50.5l222 283l-224 287q-20 25 -10.5 50.5t39.5 25.5q13 0 22 -11l223 -287l223 287q9 11 22 11q30 0 39.5 -25.5t-10.5 -50.5z" />
<glyph unicode="Y" horiz-adv-x="636" d="M541 712q27 0 38 -22t-4 -44l-217 -329v-284q0 -18 -11 -30.5t-29 -12.5t-29 12.5t-11 30.5v284l-217 329q-15 22 -4 44t38 22q16 0 25 -14l198 -301l199 301q9 14 24 14z" />
<glyph unicode="Z" horiz-adv-x="662" d="M563 78q17 0 29.5 -11.5t12.5 -27.5t-12.5 -27.5t-29.5 -11.5h-467q-41 0 -41 34q0 16 11 33l423 555h-381q-17 0 -29 11.5t-12 27.5t12 27.5t29 11.5h457q39 0 39 -34q0 -22 -10 -35l-420 -553h389z" />
<glyph unicode="[" horiz-adv-x="349" d="M261 -126q17 0 28 -11t11 -27t-11 -26.5t-28 -10.5h-131q-16 0 -27 10.5t-11 26.5v1v1v881v1q0 9 3 15q10 22 33 22h1h1h131q17 0 28 -10.5t11 -26.5t-11 -26.5t-28 -10.5h-95v-809h95z" />
<glyph unicode="\" horiz-adv-x="406" d="M349 -33q-14 -5 -27 1.5t-18 19.5l-268 739q-5 13 1 26t20 18t27 -1t18 -19l268 -739q5 -13 -1 -26.5t-20 -18.5z" />
<glyph unicode="]" horiz-adv-x="349" d="M258 720v-1v-881v-1v-1q0 -16 -11 -26.5t-28 -10.5h-131q-16 0 -27 10.5t-11 26.5t11 27t27 11h95v809h-95q-16 0 -27 10.5t-11 26.5t11 26.5t27 10.5h131h1h1q23 0 34 -21q3 -7 3 -16z" />
<glyph unicode="^" horiz-adv-x="600" d="M522 286q6 -12 1.5 -25.5t-18.5 -19.5q-13 -7 -26.5 -1.5t-18.5 18.5l-160 342l-159 -343q-6 -12 -19 -17t-27 1q-13 6 -18 19.5t1 26.5l189 406q5 11 15 17l6 3q19 7 36 -6q6 -7 9 -15z" />
<glyph unicode="_" horiz-adv-x="712" d="M102 -35q0 15 10 25t24 10h441q14 0 24 -10t10 -25t-10 -24.5t-24 -9.5h-441q-14 0 -24 9.5t-10 24.5z" />
<glyph unicode="a" horiz-adv-x="628" d="M514 504q17 0 28 -12t11 -28v-435q0 -17 -11 -29t-28 -12q-18 0 -29 12t-11 29v50q-59 -90 -175 -90q-121 0 -184 67t-63 194t63 194t184 67q114 0 175 -91v44q0 16 11.5 28t28.5 12zM306 67q140 0 168 100v164q-30 103 -168 103q-91 0 -134 -45t-43 -140 q0 -92 43.5 -137t133.5 -45z" />
<glyph unicode="b" horiz-adv-x="629" d="M330 510q121 0 184.5 -66.5t63.5 -191.5q0 -127 -63.5 -194t-184.5 -67q-116 0 -174 90v-50q0 -17 -11 -29t-29 -12q-17 0 -28.5 12t-11.5 29v641q0 16 11.5 28t28.5 12t28.5 -12t11.5 -28v-251q27 39 72.5 64t101.5 25zM323 68q178 0 178 183q0 94 -43 138t-135 44 q-138 0 -167 -100v-164q29 -101 167 -101z" />
<glyph unicode="c" horiz-adv-x="584" d="M314 -12q-127 0 -195 67.5t-68 194.5q0 128 66.5 194.5t196.5 66.5q160 0 217 -109q10 -17 5.5 -32.5t-20.5 -22.5q-31 -14 -53 17q-41 71 -153 69q-95 -2 -139 -45.5t-44 -137.5q0 -93 45 -137t138 -46q117 -2 153 68q24 34 56 20q15 -7 19 -23t-4 -30 q-59 -114 -220 -114z" />
<glyph unicode="d" horiz-adv-x="630" d="M514 712q18 0 28.5 -11.5t10.5 -28.5v-641q0 -17 -11 -29t-28 -12q-18 0 -29 12t-11 29v50q-58 -90 -175 -90q-121 0 -184 67t-63 194t63 194t184 67q114 0 175 -91v250q0 17 11 28.5t29 11.5zM307 68q138 0 167 101v164q-29 102 -167 102q-92 0 -135 -44.5t-43 -139.5 q0 -183 178 -183z" />
<glyph unicode="e" horiz-adv-x="603" d="M558 279q1 -17 -10.5 -28.5t-28.5 -11.5h-387q3 -89 48.5 -131t138.5 -41q113 0 152 71q23 32 53 15q15 -9 18 -24.5t-7 -29.5q-57 -111 -218 -111q-128 -1 -196.5 67t-68.5 195q0 261 257 261q115 0 178.5 -59t70.5 -173zM135 304h341q-4 65 -47 98t-118 33 q-84 0 -125.5 -31.5t-50.5 -99.5z" />
<glyph unicode="f" horiz-adv-x="368" d="M312 728q20 -2 32.5 -16.5t9.5 -34.5q-3 -15 -15 -22.5t-25 -5.5q-6 1 -21 1q-45 0 -68 -18q-26 -21 -26 -74v-58h96q16 0 27 -10t11 -26t-11 -26.5t-27 -10.5h-96v-396q0 -17 -11.5 -29t-29.5 -12t-30 12t-12 29v396h-43q-17 0 -28 10.5t-11 26.5t11 26t28 10h43v60 q0 84 45.5 126.5t124.5 42.5q18 0 26 -1z" />
<glyph unicode="g" horiz-adv-x="628" d="M514 511q17 0 28 -12t11 -29v-365q0 -162 -62.5 -238.5t-204.5 -75.5q-96 0 -163 31q-33 17 -18 50q7 15 21 19.5t29 -1.5q58 -23 130 -23q95 -1 139.5 50t49.5 164q-60 -90 -175 -90q-121 0 -184 67t-63 194t63 194t184 67q114 0 175 -91v48q0 17 11 29t29 12zM306 68 q139 0 168 101v164q-30 102 -168 102q-92 0 -134.5 -44.5t-42.5 -139.5q0 -183 177 -183z" />
<glyph unicode="h" horiz-adv-x="597" d="M330 511q201 0 201 -251v-230q0 -17 -11 -28.5t-29 -11.5q-17 0 -28 11.5t-11 28.5v222q0 96 -30 138t-103 42q-77 0 -118.5 -52.5t-44.5 -150.5v-198q0 -17 -11 -29t-29 -12q-17 0 -28.5 12t-11.5 29v642q0 17 11.5 28t28.5 11q18 0 29 -11t11 -28v-282q54 120 174 120z " />
<glyph unicode="i" horiz-adv-x="263" d="M143 593q-27 0 -42 15.5t-15 42.5q0 57 57 57q59 0 59 -57q0 -27 -15.5 -42.5t-43.5 -15.5zM161 498q26 -9 26 -40v-427q0 -17 -11 -29t-29 -12t-29 12t-11 29v391h-34q-17 0 -28 11t-11 28t11 28t28 11h75q5 0 13 -2z" />
<glyph unicode="j" horiz-adv-x="266" d="M150 708q59 0 59 -57q0 -27 -15.5 -42.5t-43.5 -15.5q-27 0 -42.5 15.5t-15.5 42.5q0 57 58 57zM151 500q17 0 28 -11t11 -28v-514q0 -72 -44 -109.5t-118 -37.5h-12q-21 0 -38 11.5t-17 35.5q0 15 10 26t26 10q3 0 12 -2t17 -2q51 0 66 28t15 98v417h-34q-17 0 -28 11 t-11 28t11 28t28 11h78z" />
<glyph unicode="k" horiz-adv-x="491" d="M444 48q10 -13 8 -28t-14 -24q-7 -7 -26.5 -6t-29.5 13l-180 203l-43 -47v-128q0 -16 -12 -28.5t-29 -12.5q-18 0 -30 12.5t-12 28.5v641q0 16 12 28t30 12t29.5 -12t11.5 -28v-406l210 230q23 25 51 10q14 -8 17 -23.5t-9 -28.5l-173 -190z" />
<glyph unicode="l" horiz-adv-x="277" d="M183 -10q-49 0 -79 27t-30 80v575q0 16 11.5 28t28.5 12t28.5 -12t11.5 -28v-562q0 -25 6.5 -36t25.5 -11h8q42 2 47 -25q7 -35 -16 -43q-15 -5 -42 -5z" />
<glyph unicode="m" horiz-adv-x="972" d="M705 511q201 0 201 -251v-230q0 -17 -11 -28.5t-29 -11.5q-17 0 -28 11.5t-11 28.5v222q0 96 -30 138t-103 42q-77 0 -118.5 -52.5t-44.5 -150.5v-199q0 -17 -11 -28.5t-29 -11.5q-17 0 -28 11.5t-11 28.5v222q0 96 -30 138t-103 42q-77 0 -118.5 -52.5t-44.5 -150.5 v-198q0 -17 -11 -29t-29 -12q-17 0 -28.5 12t-11.5 29v440q0 16 11.5 28t28.5 12t28.5 -12t11.5 -28v-80q54 120 174 120q155 0 190 -147q24 70 71.5 108.5t113.5 38.5z" />
<glyph unicode="n" horiz-adv-x="597" d="M330 511q201 0 201 -251v-230q0 -17 -11 -28.5t-29 -11.5q-17 0 -28 11.5t-11 28.5v222q0 96 -30 138t-103 42q-77 0 -118.5 -52.5t-44.5 -150.5v-198q0 -17 -11 -29t-29 -12q-17 0 -28.5 12t-11.5 29v432q0 17 11.5 29t28.5 12q18 0 29 -12t11 -29v-72q54 120 174 120z " />
<glyph unicode="o" horiz-adv-x="630" d="M315 -12q-128 0 -196 67.5t-68 194.5q0 129 67 195t197 66q263 0 263 -261q0 -127 -67.5 -194.5t-195.5 -67.5zM315 67q95 0 140 44.5t45 138.5q0 96 -44 139.5t-141 43.5t-141.5 -44t-44.5 -139q0 -94 45.5 -138.5t140.5 -44.5z" />
<glyph unicode="p" horiz-adv-x="629" d="M330 511q121 0 184.5 -67t63.5 -194q0 -126 -63.5 -192.5t-184.5 -66.5q-116 0 -174 89v-247q0 -17 -11 -29t-29 -12q-17 0 -28.5 12t-11.5 29v637q0 16 11.5 28t28.5 12t28.5 -12t11.5 -28v-50q26 41 71.5 66t102.5 25zM323 68q91 0 134.5 45t43.5 137q0 95 -43 139.5 t-135 44.5q-138 0 -167 -102v-163q29 -101 167 -101z" />
<glyph unicode="q" horiz-adv-x="629" d="M513 510q17 0 28.5 -12t11.5 -28v-637q0 -17 -11 -29t-29 -12q-17 0 -28 12t-11 29v248q-60 -90 -175 -90q-120 0 -183.5 66.5t-63.5 192.5q0 127 63 194t184 67q57 0 102.5 -25.5t72.5 -66.5v51q0 16 11 28t28 12zM306 68q138 0 168 101v163q-29 102 -168 102 q-91 0 -134 -44.5t-43 -139.5q0 -92 43.5 -137t133.5 -45z" />
<glyph unicode="r" horiz-adv-x="394" d="M319 508q18 1 30 -9.5t12 -27.5t-11 -27.5t-27 -11.5q-103 -7 -145 -59q-16 -21 -23 -39v-303q0 -17 -11 -29t-28 -12q-18 0 -29 12t-11 29v439q0 16 11 28t29 12q17 0 28 -12t11 -28v-44q37 73 164 82z" />
<glyph unicode="s" horiz-adv-x="475" d="M228 -10q-100 0 -167 44q-13 9 -14.5 25.5t7.5 28.5q21 27 55 8q50 -30 119 -30q60 -1 92 18t32 55q0 66 -125 90q-174 31 -174 140q0 68 46.5 105.5t129.5 37.5q99 0 161 -43q13 -10 14 -27t-10 -28q-22 -23 -54 -3q-41 27 -111 26q-97 -1 -97 -67q0 -25 24.5 -41 t89.5 -29q95 -19 140 -58t45 -105q0 -72 -52 -109.5t-151 -37.5z" />
<glyph unicode="t" horiz-adv-x="433" d="M356 74q16 1 26 -10t10 -26q0 -24 -17 -36t-37 -12h-13q-74 0 -117.5 38t-43.5 110v289h-91q-17 0 -28 10.5t-11 26.5t11 26t28 10h91v171q0 16 11.5 28t29.5 12t30 -12t12 -28v-171h103q16 0 27 -10t11 -26t-11 -26.5t-27 -10.5h-103v-231q0 -70 14.5 -98t65.5 -28 q8 0 17.5 2t11.5 2z" />
<glyph unicode="u" horiz-adv-x="597" d="M491 503q17 0 28.5 -12t11.5 -28v-433q0 -16 -11.5 -28.5t-28.5 -12.5t-28.5 12.5t-11.5 28.5v82q-26 -58 -71.5 -90.5t-105.5 -32.5q-103 0 -150.5 62.5t-47.5 188.5v231q0 16 11.5 28t28.5 12t28 -12t11 -28v-223q0 -97 28.5 -138.5t100.5 -41.5q77 0 120.5 53 t46.5 151v191q0 16 11.5 28t28.5 12z" />
<glyph unicode="v" horiz-adv-x="531" d="M467 507q17 -3 24 -21.5t-3 -38.5l-195 -438q-9 -19 -27 -19q-20 0 -28 19l-195 438q-10 20 -3 38.5t25 21.5q11 4 23.5 -1t18.5 -20l159 -352l158 352q13 31 43 21z" />
<glyph unicode="w" horiz-adv-x="857" d="M786 510q22 -1 30.5 -19t-0.5 -41l-152 -425q-13 -35 -48 -35q-34 0 -49 34l-138 318l-138 -317q-15 -35 -50 -35t-48 35l-152 425q-9 23 -0.5 41t30.5 19q29 3 37 -22l139 -397l124 299q10 25 22.5 34.5t35.5 9.5q22 0 34.5 -9.5t22.5 -34.5l124 -299l139 397 q10 25 37 22z" />
<glyph unicode="x" horiz-adv-x="547" d="M325 250l167 -192q28 -33 2 -59q-8 -10 -28 -9.5t-34 17.5l-158 183l-159 -183q-14 -17 -34 -17.5t-28 9.5q-26 26 2 59l167 192l-167 193q-30 31 0 59q6 9 25.5 8.5t34.5 -18.5l159 -182l158 182q15 18 35 18.5t26 -8.5q28 -28 0 -59z" />
<glyph unicode="y" d="M548 508q16 -7 21 -22.5t-3 -32.5l-303 -639q-8 -17 -25.5 -22.5t-29.5 0.5q-14 6 -18.5 21.5t3.5 32.5l75 159l-226 448q-8 17 -3 32.5t21 22.5q9 6 25.5 2t23.5 -18l201 -399l189 399q7 14 23.5 18t25.5 -2z" />
<glyph unicode="z" horiz-adv-x="510" d="M433 68q14 0 24 -10t10 -24t-10 -24t-24 -10h-352q-39 0 -39 35q0 16 10 28l301 365h-270q-15 0 -26.5 10.5t-11.5 25.5t11.5 25.5t26.5 10.5h351q32 0 32 -28q0 -20 -6 -27l-316 -377h289z" />
<glyph unicode="{" horiz-adv-x="388" d="M308 -115q13 -2 22 -12t9 -22q0 -15 -11.5 -25t-27.5 -8q-72 8 -110 53t-33 115l13 175q4 48 -28 79q-26 21 -61 21q-15 0 -25 9.5t-10 23.5t10 23t25 9q34 0 61 22q33 26 28 78l-13 175q-5 69 33 113.5t110 54.5q16 2 27.5 -8t11.5 -25q0 -14 -10 -24t-24 -10 q-31 0 -54 -20q-32 -26 -28 -78l13 -175q6 -93 -59 -135q65 -43 59 -136l-13 -175q-4 -49 28 -78q16 -14 57 -20z" />
<glyph unicode="|" horiz-adv-x="299" d="M150 -200q-15 0 -25 10.5t-10 24.5v931q0 14 10 24t25 10t24.5 -10t9.5 -24v-932q0 -14 -9.5 -24t-24.5 -10z" />
<glyph unicode="}" horiz-adv-x="388" d="M342 294q0 -14 -10 -23.5t-25 -9.5q-33 0 -60 -21q-34 -27 -29 -79l13 -175q5 -70 -33 -115t-110 -53q-16 -1 -27 8.5t-11 24.5q0 12 8.5 22t21.5 12q38 5 57 20q32 26 29 78l-13 175q-7 91 58 136q-66 43 -58 135l13 175q3 53 -29 78q-23 20 -54 20q-14 0 -23.5 10 t-9.5 24q0 15 11 24.5t27 8.5q72 -10 110 -54.5t33 -113.5l-13 -175q-4 -48 29 -78q25 -22 60 -22q15 0 25 -9t10 -23z" />
<glyph unicode="~" horiz-adv-x="620" d="M416 213q-46 0 -110 34.5t-96 34.5q-49 0 -71 -59q-6 -17 -21 -17q-20 0 -20 26q0 56 30 88.5t74 32.5q48 0 111.5 -35t90.5 -35q31 0 54 17t27 48q3 14 18 14q20 0 20 -23q0 -57 -32 -91.5t-75 -34.5z" />
<glyph unicode="&#xa1;" horiz-adv-x="292" d="M146 420q-55 0 -55 55q0 25 14.5 39.5t40.5 14.5q25 0 40 -14.5t15 -39.5q0 -55 -55 -55zM145 -200q-18 0 -29.5 12t-11.5 28v427q0 16 11.5 28t29.5 12t30 -12t12 -28v-427q0 -16 -12 -28t-30 -12z" />
<glyph unicode="&#xa2;" horiz-adv-x="663" d="M553 153q16 -6 22.5 -21t-2.5 -30q-57 -108 -205 -114v-70q0 -13 -9 -22t-22 -9t-22 9t-9 22v73q-105 12 -160.5 79t-55.5 181q0 235 216 259v72q0 13 9 22t22 9t22 -9t9 -22v-70q152 -5 204 -109q9 -17 4 -31t-22 -22q-30 -14 -50 15q-36 64 -136 69v-366q104 5 134 68 q20 29 51 17zM166 251q0 -161 140 -180v360q-72 -10 -106 -53.5t-34 -126.5z" />
<glyph unicode="&#xa3;" horiz-adv-x="712" d="M592 77q15 0 27 -11t12 -27q0 -17 -11.5 -28t-27.5 -11h-447q-15 0 -26.5 11t-11.5 28q0 16 11.5 27t26.5 11h37v211h-63q-15 0 -26.5 11t-11.5 28q0 16 11.5 27t26.5 11h63q3 172 77.5 259.5t217.5 87.5q58 0 109 -16q23 -7 31 -27t-3 -33q-19 -27 -60 -18 q-35 11 -77 11q-108 0 -159.5 -63t-53.5 -201h227q15 0 27 -11t12 -27q0 -17 -11.5 -28t-27.5 -11h-227v-211h328z" />
<glyph unicode="&#xa4;" horiz-adv-x="773" d="M602 174l74 -74q9 -9 9 -22t-9 -22t-22 -9t-22 9l-75 75q-65 -47 -171 -47t-171 47l-75 -75q-9 -9 -22 -9t-22 9t-9 22t9 22l75 74q-49 66 -49 172q0 108 47 173l-73 73q-9 9 -9 22t9 22t22 9t22 -9l74 -74q64 46 172 46q110 0 173 -45l73 73q9 9 22 9t22 -9t9 -22 t-9 -22l-73 -73q47 -64 47 -173q0 -108 -48 -172zM386 163q95 0 140 44.5t45 138.5q0 96 -44 139.5t-141 43.5t-141.5 -44t-44.5 -139q0 -94 45.5 -138.5t140.5 -44.5z" />
<glyph unicode="&#xa5;" horiz-adv-x="636" d="M541 712q27 0 38 -22t-4 -44l-205 -311h135q14 0 24 -10t10 -25t-10 -24.5t-24 -9.5h-147v-68h147q14 0 24 -10t10 -24q0 -15 -10 -25t-24 -10h-147v-96q0 -18 -11 -30.5t-29 -12.5t-29 12.5t-11 30.5v96h-147q-14 0 -24.5 10t-9.5 25q0 15 10 24.5t24 9.5h147v68h-147 q-14 0 -24.5 9.5t-9.5 24.5q0 15 10 25t24 10h135l-205 311q-15 22 -4 44t38 22q16 0 25 -14l198 -301l199 301q9 14 24 14z" />
<glyph unicode="&#xa6;" horiz-adv-x="288" d="M144 395q-15 0 -25 10.5t-10 24.5v212q0 14 10 24t25 10t24.5 -10.5t9.5 -24.5v-211q0 -14 -9.5 -24.5t-24.5 -10.5zM144 -80q-15 0 -25 10.5t-10 24.5v211q0 14 10 24t25 10t24.5 -10t9.5 -24v-212q0 -14 -9.5 -24t-24.5 -10z" />
<glyph unicode="&#xa7;" horiz-adv-x="487" d="M376 187q55 -41 55 -106q0 -74 -52 -112t-151 -38q-96 0 -167 44q-13 9 -14.5 25.5t7.5 28.5q21 29 55 8q47 -28 119 -30q124 -2 124 74q0 65 -125 88q-87 17 -129 50.5t-42 87.5q0 90 78 122q-66 33 -66 98q0 70 46 108.5t130 38.5q98 0 160 -44q14 -9 14.5 -26 t-10.5 -29q-22 -23 -53 -2q-40 26 -111 25q-98 -1 -98 -67q0 -25 24.5 -40.5t89.5 -28.5q94 -18 138.5 -57t44.5 -104q0 -79 -67 -114zM132 311q0 -57 110 -75q24 -3 45 -9q39 6 59.5 25.5t20.5 48.5q0 27 -21 50q-4 2 -6 4q-38 32 -111 31q-97 -1 -97 -75z" />
<glyph unicode="&#xa9;" horiz-adv-x="495" d="M247 414q-71 0 -112 41t-41 112q0 72 40 111.5t113 39.5t113.5 -39.5t40.5 -111.5t-41 -112.5t-113 -40.5zM247 442q58 0 92 33.5t34 91.5q0 59 -32.5 91.5t-93.5 32.5q-125 0 -125 -124q0 -58 33.5 -91.5t91.5 -33.5zM254 478q-38 0 -60.5 25.5t-22.5 65.5t22.5 65.5 t60.5 25.5q32 0 50 -15q14 -9 0 -21q-7 -5 -16 0q-12 8 -33 8q-56 0 -56 -63t56 -63q21 0 33 8q9 5 16 0q12 -10 0 -21q-18 -15 -50 -15z" />
<glyph unicode="&#xab;" horiz-adv-x="486" d="M139 279l89 -91q18 -18 14 -33q-1 -11 -10 -13t-18 5l-123 80q-16 10 -25 26.5t-5 32.5q3 27 30 45l123 80q9 6 18 4t10 -13q3 -16 -14 -33zM408 188q18 -18 14 -33q-1 -11 -10 -13t-18 5l-123 80q-16 10 -25 26.5t-5 32.5q3 27 30 45l123 80q9 6 18 4t10 -13 q3 -16 -14 -33l-89 -90z" />
<glyph unicode="&#xac;" horiz-adv-x="651" d="M503 379q15 0 25 -10.5t10 -24.5v-169q0 -14 -10 -24t-25 -10t-24.5 10.5t-9.5 24.5v134h-355q-14 0 -24.5 10t-10.5 25t10.5 24.5t24.5 9.5h389z" />
<glyph unicode="&#xad;" horiz-adv-x="494" d="M70 265q0 16 11 26.5t28 10.5h277q16 0 27 -10.5t11 -26.5t-11 -26.5t-27 -10.5h-277q-17 0 -28 10.5t-11 26.5z" />
<glyph unicode="&#xae;" horiz-adv-x="495" d="M247 718q73 0 113.5 -39.5t40.5 -111.5t-41 -112.5t-113 -40.5q-71 0 -112 41t-41 112q0 72 40 111.5t113 39.5zM247 442q58 0 92 33.5t34 91.5q0 59 -32.5 91.5t-93.5 32.5q-125 0 -125 -124q0 -58 33.5 -91.5t91.5 -33.5zM287 553l34 -67q3 -8 -5 -14q-13 -9 -21 4 l-36 70h-12h-30v-62q0 -5 -4 -9.5t-9 -4.5q-14 0 -14 14v167q0 13 13 13h44q70 0 70 -59q0 -39 -30 -52zM217 574h30q43 0 43 31q0 32 -43 32h-30v-63z" />
<glyph unicode="&#xb0;" horiz-adv-x="463" d="M231 500q-64 0 -99.5 36t-35.5 100q0 65 35 99.5t100 34.5t101 -35t36 -99t-36.5 -100t-100.5 -36zM231 542q44 0 69.5 25t25.5 69t-25.5 68.5t-69.5 24.5t-69 -24.5t-25 -68.5t25 -69t69 -25z" />
<glyph unicode="&#xb1;" d="M117 291q-14 0 -24 9.5t-10 24.5t10 25t24 10h152v94q0 14 10 24t25 10t24.5 -10.5t9.5 -24.5v-93h153q14 0 24.5 -10t10.5 -25t-10.5 -24.5t-24.5 -9.5h-153v-94q0 -14 -9.5 -24.5t-24.5 -10.5t-25 10.5t-10 24.5v94h-152zM491 94q14 0 24.5 -9.5t10.5 -24.5t-10.5 -25 t-24.5 -10l-374 1q-14 0 -24 9.5t-10 24.5t10 24.5t24 9.5h374z" />
<glyph unicode="&#xb6;" horiz-adv-x="649" d="M501 664q14 0 24 -10t10 -25v-694q0 -14 -10 -24.5t-25 -10.5t-24.5 10.5t-9.5 24.5v660h-142v-661q0 -14 -10 -24t-25 -10t-24.5 10.5t-9.5 24.5v375q-74 0 -126 52t-52 126q0 73 52 124.5t126 51.5h246z" />
<glyph unicode="&#xb7;" horiz-adv-x="308" d="M154 240q-26 0 -40.5 14.5t-14.5 39.5q0 55 55 55t55 -55q0 -26 -14.5 -40t-40.5 -14z" />
<glyph unicode="&#xbb;" horiz-adv-x="486" d="M245 289q4 -16 -5 -33.5t-25 -28.5l-124 -80q-8 -7 -17 -5t-11 13q-2 16 15 33l89 91l-89 90q-16 16 -15 33q1 11 10.5 13t17.5 -4l124 -80q24 -17 30 -42zM425 289q4 -16 -5 -33.5t-25 -28.5l-124 -80q-8 -7 -17 -5t-11 13q-2 16 15 33l89 91l-89 90q-16 16 -15 33 q1 11 10.5 13t17.5 -4l124 -80q24 -17 30 -42z" />
<glyph unicode="&#xbc;" horiz-adv-x="829" d="M548 763q13 -7 17.5 -20t-1.5 -25l-345 -741q-6 -13 -18.5 -18t-25.5 1q-14 7 -18.5 20t1.5 26l345 740q6 13 18.5 18t26.5 -1zM184 242q0 -15 -10.5 -26t-27.5 -11t-27.5 11t-10.5 26v378l-38 -18q-32 -14 -47 17q-6 14 -1 27.5t18 18.5l90 42q11 5 21 3 q14 -2 23.5 -13.5t9.5 -24.5v-430zM774 194q15 0 25.5 -10t10.5 -25t-10.5 -25t-25.5 -10h-48v-98q0 -14 -10.5 -25t-26.5 -11q-17 0 -27 11t-10 25v98l-187 1q-10 -1 -23 8q-12 9 -13.5 23.5t7.5 24.5l222 304q10 13 25 13h6q16 0 26.5 -11t10.5 -26v-267h48zM527 194h125 v169z" />
<glyph unicode="&#xbd;" horiz-adv-x="847" d="M548 763q13 -7 17.5 -20t-1.5 -25l-345 -741q-6 -13 -18.5 -18t-25.5 1q-14 7 -18.5 20t1.5 26l345 740q6 13 18.5 18t26.5 -1zM184 242q0 -15 -10.5 -26t-27.5 -11t-27.5 11t-10.5 26v378l-38 -18q-32 -14 -47 17q-6 14 -1 27.5t18 18.5l90 42q11 5 21 3 q14 -2 23.5 -13.5t9.5 -24.5v-430zM785 67q15 0 25 -9t10 -24q0 -14 -10 -24t-25 -10h-280q-15 0 -25 10t-10 24q0 16 12 26q42 44 114 104.5t103.5 97.5t31.5 76q0 42 -28.5 66.5t-75.5 24.5q-58 0 -93 -37q-31 -31 -55 -4q-24 26 6 54q60 57 144 57q77 0 125.5 -44.5 t48.5 -118.5q0 -36 -21 -72.5t-44 -60t-73.5 -68t-74.5 -68.5h195z" />
<glyph unicode="&#xbe;" horiz-adv-x="957" d="M676 763q13 -7 17.5 -20t-1.5 -25l-345 -741q-6 -13 -18.5 -18t-25.5 1q-14 7 -18.5 20t1.5 26l345 740q6 13 18.5 18t26.5 -1zM342 350q0 -145 -167 -145q-107 0 -146 84q-7 15 1 30t24 19q28 6 41 -22q20 -43 80 -43q57 0 79 18t22 64q0 77 -95 77q-14 0 -24 9t-11 22 v1v1q0 7 3 13q8 22 32 22q44 0 63.5 16.5t19.5 55.5q0 41 -19.5 58t-69.5 17q-54 0 -69 -38q-9 -25 -35 -25q-17 0 -27 13.5t-5 31.5q29 81 136 81q155 0 155 -145q0 -64 -50 -98q62 -38 62 -117zM902 194q15 0 25.5 -10t10.5 -25t-10.5 -25t-25.5 -10h-48v-98 q0 -14 -10.5 -25t-26.5 -11q-17 0 -27 11t-10 25v98l-187 1q-10 -1 -23 8q-12 9 -13.5 23.5t7.5 24.5l222 304q10 13 25 13h6q16 0 26.5 -11t10.5 -26v-267h48zM655 194h125v169z" />
<glyph unicode="&#xbf;" horiz-adv-x="595" d="M338 435q-56 0 -56 54q0 26 15 40.5t41 14.5q25 0 39.5 -14.5t14.5 -40.5q0 -54 -54 -54zM522 -58q23 -29 -6 -56q-81 -86 -206 -86q-106 0 -173 52t-67 142q0 46 21 83.5t59 64t73 43t80 31.5l2 89q2 34 31 37q15 1 24.5 -9t11.5 -25l16 -102q3 -16 -8 -29.5t-29 -16.5 q-204 -55 -204 -161q0 -63 43 -93.5t118 -30.5q99 0 150 59q16 17 33.5 19.5t30.5 -11.5z" />
<glyph unicode="&#xc0;" horiz-adv-x="703" d="M332 791l-93 105q-17 20 -15 37t21 25q39 17 64 -29l65 -124q13 -25 -9 -28q-19 -1 -33 14zM643 53q21 -49 -19 -60q-38 -12 -52 24l-62 149h-316l-61 -146q-16 -38 -54 -27q-18 4 -23 21t4 39l271 642q9 17 21 17q14 0 22 -17zM226 244h252l-126 304z" />
<glyph unicode="&#xc1;" horiz-adv-x="703" d="M339 777q-22 3 -9 28l65 124q9 17 28 25.5t36 3.5q20 -7 22.5 -24t-11.5 -32l-98 -111q-14 -15 -33 -14zM643 53q21 -49 -19 -60q-38 -12 -52 24l-62 149h-316l-61 -146q-16 -38 -54 -27q-18 4 -23 21t4 39l271 642q9 17 21 17q14 0 22 -17zM226 244h252l-126 304z" />
<glyph unicode="&#xc2;" horiz-adv-x="703" d="M229 777q-11 1 -13 10.5t4 17.5l80 124q14 20 36 28l1 1h2q8 2 13 2q4 0 12 -2h1q23 -8 38 -29l80 -124q6 -8 4 -17.5t-13 -10.5q-18 -1 -33 14l-89 88l-90 -88q-17 -17 -33 -14zM643 53q21 -49 -19 -60q-38 -12 -52 24l-62 149h-316l-61 -146q-16 -38 -54 -27 q-18 4 -23 21t4 39l271 642q9 17 21 17q14 0 22 -17zM226 244h252l-126 304z" />
<glyph unicode="&#xc3;" horiz-adv-x="703" d="M233 803q-9 0 -15 7t-6 18q0 38 21 64.5t52 26.5q33 0 72 -25.5t53 -25.5q35 0 41 34q3 15 20 15q21 0 21 -23q0 -38 -22 -66t-53 -28t-71 25t-56 25q-27 0 -34 -29q-7 -18 -23 -18zM643 53q21 -49 -19 -60q-38 -12 -52 24l-62 149h-316l-61 -146q-16 -38 -54 -27 q-18 4 -23 21t4 39l271 642q9 17 21 17q14 0 22 -17zM226 244h252l-126 304z" />
<glyph unicode="&#xc4;" horiz-adv-x="703" d="M244 773q-27 0 -42 15.5t-15 42.5q0 57 57 57q59 0 59 -57q0 -27 -15.5 -42.5t-43.5 -15.5zM457 773q-27 0 -42.5 15.5t-15.5 42.5q0 57 58 57q59 0 59 -57q0 -27 -15.5 -42.5t-43.5 -15.5zM643 53q21 -49 -19 -60q-38 -12 -52 24l-62 149h-316l-61 -146q-16 -38 -54 -27 q-18 4 -23 21t4 39l271 642q9 17 21 17q14 0 22 -17zM226 244h252l-126 304z" />
<glyph unicode="&#xc5;" horiz-adv-x="703" d="M351 747q-49 0 -76 27.5t-27 76.5q0 50 26.5 76.5t76.5 26.5t77.5 -27t27.5 -76t-28 -76.5t-77 -27.5zM351 905q-25 0 -39.5 -14.5t-14.5 -39.5q0 -26 14.5 -40.5t39.5 -14.5q26 0 41 14.5t15 40.5q0 25 -15 39.5t-41 14.5zM643 53q21 -49 -19 -60q-38 -12 -52 24 l-62 149h-316l-61 -146q-16 -38 -54 -27q-18 4 -23 21t4 39l271 642q9 17 21 17q14 0 22 -17zM226 244h252l-126 304z" />
<glyph unicode="&#xc6;" horiz-adv-x="885" d="M788 81q17 0 28.5 -11t11.5 -29t-11.5 -29.5t-28.5 -11.5h-379q-15 0 -26 11t-11 26v129h-163l-73 -148q-6 -12 -11 -17.5t-17.5 -10.5t-29.5 3q-18 6 -22.5 23t6.5 40l312 619q8 25 35 25h379q17 0 28.5 -11.5t11.5 -29.5t-11.5 -29.5t-28.5 -11.5h-335v-222h282 q17 0 28.5 -11t11.5 -28q0 -18 -11.5 -29t-28.5 -11h-282v-236h335zM246 240h126v256z" />
<glyph unicode="&#xc7;" horiz-adv-x="701" d="M609 227q18 -4 26 -17t4 -31q-44 -180 -240 -189l-29 -39q47 -4 75.5 -29.5t28.5 -64.5q0 -41 -27.5 -65t-74.5 -24q-60 0 -89 25q-21 18 -3 38q16 18 38 4q15 -15 54 -15q49 0 49 37q0 17 -19.5 29t-47.5 12q-6 0 -33 -9q-2 -1 -9 -1q-15 0 -21 9q-17 17 -2 34l51 61 q-130 11 -201 102.5t-71 256.5q0 172 82.5 266.5t224.5 94.5q189 0 260 -148q7 -15 1 -30t-21 -23q-16 -8 -31.5 -1.5t-24.5 23.5q-26 49 -69 72t-111 23q-110 0 -169 -69t-59 -208q0 -278 228 -278q77 0 120.5 29t59.5 93q5 17 19.5 26.5t30.5 5.5z" />
<glyph unicode="&#xc8;" d="M285 791l-93 105q-17 20 -15 37t21 25q39 17 64 -29l65 -124q13 -25 -9 -28q-19 -1 -33 14zM511 81q17 0 28.5 -11t11.5 -29t-11.5 -29.5t-28.5 -11.5h-379q-15 0 -26 11t-11 26v626q0 16 11 26.5t26 10.5h379q17 0 28.5 -11.5t11.5 -29.5t-11.5 -29.5t-28.5 -11.5h-335 v-222h282q17 0 28.5 -11t11.5 -28q0 -18 -11.5 -29t-28.5 -11h-282v-236h335z" />
<glyph unicode="&#xc9;" d="M292 777q-22 3 -9 28l65 124q9 17 28 25.5t36 3.5q20 -7 22.5 -24t-11.5 -32l-98 -111q-14 -15 -33 -14zM511 81q17 0 28.5 -11t11.5 -29t-11.5 -29.5t-28.5 -11.5h-379q-15 0 -26 11t-11 26v626q0 16 11 26.5t26 10.5h379q17 0 28.5 -11.5t11.5 -29.5t-11.5 -29.5 t-28.5 -11.5h-335v-222h282q17 0 28.5 -11t11.5 -28q0 -18 -11.5 -29t-28.5 -11h-282v-236h335z" />
<glyph unicode="&#xca;" d="M182 777q-11 1 -13 10.5t4 17.5l80 124q14 20 36 28q1 0 3 1q8 2 13 2q4 0 12 -2h1q23 -8 38 -29l80 -124q6 -8 4 -17.5t-13 -10.5q-18 -1 -33 14l-89 88l-90 -88q-17 -17 -33 -14zM511 81q17 0 28.5 -11t11.5 -29t-11.5 -29.5t-28.5 -11.5h-379q-15 0 -26 11t-11 26v626 q0 16 11 26.5t26 10.5h379q17 0 28.5 -11.5t11.5 -29.5t-11.5 -29.5t-28.5 -11.5h-335v-222h282q17 0 28.5 -11t11.5 -28q0 -18 -11.5 -29t-28.5 -11h-282v-236h335z" />
<glyph unicode="&#xcb;" d="M197 773q-27 0 -42 15.5t-15 42.5q0 57 57 57q59 0 59 -57q0 -27 -15.5 -42.5t-43.5 -15.5zM410 773q-27 0 -42.5 15.5t-15.5 42.5q0 57 58 57q59 0 59 -57q0 -27 -15.5 -42.5t-43.5 -15.5zM511 81q17 0 28.5 -11t11.5 -29t-11.5 -29.5t-28.5 -11.5h-379q-15 0 -26 11 t-11 26v626q0 16 11 26.5t26 10.5h379q17 0 28.5 -11.5t11.5 -29.5t-11.5 -29.5t-28.5 -11.5h-335v-222h282q17 0 28.5 -11t11.5 -28q0 -18 -11.5 -29t-28.5 -11h-282v-236h335z" />
<glyph unicode="&#xcc;" horiz-adv-x="234" d="M148 777q-19 -1 -33 14l-93 105q-17 20 -15 37t21 25q39 17 64 -29l65 -124q13 -25 -9 -28zM136 -10q-18 0 -29.5 12.5t-11.5 28.5v640q0 17 11.5 29t29.5 12t29 -12t11 -29v-640q0 -17 -11 -29t-29 -12z" />
<glyph unicode="&#xcd;" horiz-adv-x="234" d="M122 777q-22 3 -9 28l65 124q9 17 28 25.5t36 3.5q20 -7 22.5 -24t-11.5 -32l-98 -111q-14 -15 -33 -14zM136 -10q-18 0 -29.5 12.5t-11.5 28.5v640q0 17 11.5 29t29.5 12t29 -12t11 -29v-640q0 -17 -11 -29t-29 -12z" />
<glyph unicode="&#xce;" horiz-adv-x="234" d="M266 805q6 -8 4 -17.5t-13 -10.5q-18 -1 -33 14l-89 88l-90 -88q-17 -17 -33 -14q-11 1 -13 10.5t4 17.5l80 124q14 20 36 28q1 0 3 1q8 2 13 2q4 0 12 -2h1q23 -8 38 -29zM136 712q18 0 29 -12t11 -29v-640q0 -17 -11 -29t-29 -12t-29.5 12.5t-11.5 28.5v640 q0 17 11.5 29t29.5 12z" />
<glyph unicode="&#xcf;" horiz-adv-x="234" d="M27 773q-27 0 -42 15.5t-15 42.5q0 57 57 57q59 0 59 -57q0 -27 -15.5 -42.5t-43.5 -15.5zM240 773q-27 0 -42.5 15.5t-15.5 42.5q0 57 58 57q59 0 59 -57q0 -27 -15.5 -42.5t-43.5 -15.5zM136 -10q-18 0 -29.5 12.5t-11.5 28.5v640q0 17 11.5 29t29.5 12t29 -12t11 -29 v-640q0 -17 -11 -29t-29 -12z" />
<glyph unicode="&#xd0;" horiz-adv-x="729" d="M359 700q152 0 226.5 -85.5t74.5 -259.5q0 -355 -301 -355h-227q-15 0 -26 11t-11 26v274h-75q-17 0 -28 10.5t-11 26.5t11 26.5t28 10.5h75v278q0 16 11 26.5t26 10.5h227zM359 82q112 0 166 66t54 207q0 137 -53.5 200.5t-166.5 63.5h-183v-234h133q16 0 27 -10.5 t11 -26.5t-11 -26.5t-27 -10.5h-133v-229h183z" />
<glyph unicode="&#xd1;" horiz-adv-x="737" d="M250 803q-9 0 -15 7t-6 18q0 38 21 64.5t52 26.5q33 0 72 -25.5t53 -25.5q35 0 41 34q3 15 20 15q21 0 21 -23q0 -38 -22 -66t-53 -28q-32 0 -71 25t-56 25q-27 0 -34 -29q-7 -18 -23 -18zM640 712q17 0 28.5 -12t11.5 -29v-636q0 -18 -13 -31.5t-34 -13.5q-27 0 -37 13 l-421 566v-539q0 -16 -11 -28t-29 -12q-17 0 -28.5 12t-11.5 28v644q0 38 44 38q29 0 38 -12l423 -562v533q0 17 11 29t29 12z" />
<glyph unicode="&#xd2;" horiz-adv-x="749" d="M387 777q-19 -1 -33 14l-93 105q-17 20 -15 37t21 25q39 17 64 -29l65 -124q13 -25 -9 -28zM378 -10q-153 0 -231.5 94t-78.5 267q0 167 80 264t225 97q154 0 234.5 -95.5t80.5 -265.5q0 -172 -78.5 -266.5t-231.5 -94.5zM378 76q117 0 175.5 71.5t58.5 203.5 t-60.5 203.5t-176.5 71.5q-113 -1 -171.5 -74t-58.5 -201q0 -132 58.5 -203.5t174.5 -71.5z" />
<glyph unicode="&#xd3;" horiz-adv-x="749" d="M361 777q-22 3 -9 28l65 124q9 17 28 25.5t36 3.5q20 -7 22.5 -24t-11.5 -32l-98 -111q-14 -15 -33 -14zM378 -10q-153 0 -231.5 94t-78.5 267q0 167 80 264t225 97q154 0 234.5 -95.5t80.5 -265.5q0 -172 -78.5 -266.5t-231.5 -94.5zM378 76q117 0 175.5 71.5 t58.5 203.5t-60.5 203.5t-176.5 71.5q-113 -1 -171.5 -74t-58.5 -201q0 -132 58.5 -203.5t174.5 -71.5z" />
<glyph unicode="&#xd4;" horiz-adv-x="749" d="M251 777q-11 1 -13 10.5t4 17.5l80 124q14 20 36 28l1 1h2q8 2 13 2q4 0 12 -2h1q23 -8 38 -29l80 -124q6 -8 4 -17.5t-13 -10.5q-18 -1 -33 14l-89 88l-90 -88q-17 -17 -33 -14zM373 712q154 0 234.5 -95.5t80.5 -265.5q0 -172 -78.5 -266.5t-231.5 -94.5t-231.5 94 t-78.5 267q0 167 80 264t225 97zM378 76q117 0 175.5 71.5t58.5 203.5t-60.5 203.5t-176.5 71.5q-113 -1 -171.5 -74t-58.5 -201q0 -132 58.5 -203.5t174.5 -71.5z" />
<glyph unicode="&#xd5;" horiz-adv-x="749" d="M439 800q-31 0 -71 25t-56 25q-27 0 -34 -29q-7 -18 -23 -18q-9 0 -15 7t-6 18q0 38 21 64.5t52 26.5q33 0 72 -25.5t53 -25.5q35 0 41 34q3 15 20 15q21 0 21 -23q0 -38 -22 -66t-53 -28zM378 -10q-153 0 -231.5 94t-78.5 267q0 167 80 264t225 97q154 0 234.5 -95.5 t80.5 -265.5q0 -172 -78.5 -266.5t-231.5 -94.5zM378 76q117 0 175.5 71.5t58.5 203.5t-60.5 203.5t-176.5 71.5q-113 -1 -171.5 -74t-58.5 -201q0 -132 58.5 -203.5t174.5 -71.5z" />
<glyph unicode="&#xd6;" horiz-adv-x="749" d="M266 773q-27 0 -42 15.5t-15 42.5q0 57 57 57q59 0 59 -57q0 -27 -15.5 -42.5t-43.5 -15.5zM479 773q-27 0 -42.5 15.5t-15.5 42.5q0 57 58 57q59 0 59 -57q0 -27 -15.5 -42.5t-43.5 -15.5zM378 -10q-153 0 -231.5 94t-78.5 267q0 167 80 264t225 97q154 0 234.5 -95.5 t80.5 -265.5q0 -172 -78.5 -266.5t-231.5 -94.5zM378 76q117 0 175.5 71.5t58.5 203.5t-60.5 203.5t-176.5 71.5q-113 -1 -171.5 -74t-58.5 -201q0 -132 58.5 -203.5t174.5 -71.5z" />
<glyph unicode="&#xd7;" horiz-adv-x="506" d="M410 141q10 -9 10 -23t-10 -25q-11 -10 -25 -10t-24 10l-108 107l-108 -108q-10 -9 -23.5 -9.5t-24.5 10.5t-10.5 25t9.5 23l108 108l-108 108q-10 10 -10 24t10 25q11 10 25 10t24 -10l108 -108l108 108q10 10 24 10t25 -10q10 -11 10 -25t-10 -24l-108 -108z" />
<glyph unicode="&#xd8;" horiz-adv-x="749" d="M529 678q159 -81 159 -327q0 -172 -78.5 -266.5t-231.5 -94.5q-50 0 -96 11l-17 -47q-5 -13 -17 -19.5t-25 -1.5q-14 5 -20 18t-1 26l18 48q-152 80 -152 326q0 167 80 264t225 97q47 0 93 -11l13 37q5 13 17.5 19t26.5 1q13 -5 19 -17.5t1 -25.5zM145 351 q0 -181 105 -243l186 512q-28 6 -61 6q-113 -1 -171.5 -74t-58.5 -201zM378 76q117 0 175.5 71.5t58.5 203.5q0 184 -112 246l-188 -514q28 -7 66 -7z" />
<glyph unicode="&#xd9;" horiz-adv-x="745" d="M407 777q-19 -1 -33 14l-93 105q-17 20 -15 37t21 25q39 17 64 -29l65 -124q13 -25 -9 -28zM392 -10q-151 0 -224 92t-73 278v311q0 16 11 28.5t28 12.5t28 -12.5t11 -28.5v-310q0 -151 51.5 -221t167.5 -70q115 0 167 70.5t52 220.5v310q0 16 10.5 28.5t27.5 12.5 t28 -12t11 -29v-311q0 -370 -296 -370z" />
<glyph unicode="&#xda;" horiz-adv-x="745" d="M381 777q-22 3 -9 28l65 124q9 17 28 25.5t36 3.5q20 -7 22.5 -24t-11.5 -32l-98 -111q-14 -15 -33 -14zM392 -10q-151 0 -224 92t-73 278v311q0 16 11 28.5t28 12.5t28 -12.5t11 -28.5v-310q0 -151 51.5 -221t167.5 -70q115 0 167 70.5t52 220.5v310q0 16 10.5 28.5 t27.5 12.5t28 -12t11 -29v-311q0 -370 -296 -370z" />
<glyph unicode="&#xdb;" horiz-adv-x="745" d="M271 777q-11 1 -13 10.5t4 17.5l80 124q14 20 36 28l1 1h2q8 2 13 2q4 0 12 -2h1q23 -8 38 -29l80 -124q6 -8 4 -17.5t-13 -10.5q-18 -1 -33 14l-89 88l-90 -88q-17 -17 -33 -14zM649 712q17 0 28 -12t11 -29v-311q0 -370 -296 -370q-151 0 -224 92t-73 278v311 q0 16 11 28.5t28 12.5t28 -12.5t11 -28.5v-310q0 -151 51.5 -221t167.5 -70q115 0 167 70.5t52 220.5v310q0 16 10.5 28.5t27.5 12.5z" />
<glyph unicode="&#xdc;" horiz-adv-x="745" d="M286 773q-27 0 -42 15.5t-15 42.5q0 57 57 57q59 0 59 -57q0 -27 -15.5 -42.5t-43.5 -15.5zM499 773q-27 0 -42.5 15.5t-15.5 42.5q0 57 58 57q59 0 59 -57q0 -27 -15.5 -42.5t-43.5 -15.5zM392 -10q-151 0 -224 92t-73 278v311q0 16 11 28.5t28 12.5t28 -12.5t11 -28.5 v-310q0 -151 51.5 -221t167.5 -70q115 0 167 70.5t52 220.5v310q0 16 10.5 28.5t27.5 12.5t28 -12t11 -29v-311q0 -370 -296 -370z" />
<glyph unicode="&#xdd;" horiz-adv-x="636" d="M305 777q-22 3 -9 28l65 124q9 17 28 25.5t36 3.5q20 -7 22.5 -24t-11.5 -32l-98 -111q-14 -15 -33 -14zM541 712q27 0 38 -22t-4 -44l-217 -329v-284q0 -18 -11 -30.5t-29 -12.5t-29 12.5t-11 30.5v284l-217 329q-15 22 -4 44t38 22q16 0 25 -14l198 -301l199 301 q9 14 24 14z" />
<glyph unicode="&#xde;" horiz-adv-x="615" d="M304 562q124 0 187.5 -52t63.5 -153q0 -208 -251 -208h-129v-118q0 -17 -11 -29t-29 -12t-29 12t-11 29v641q0 16 11.5 28t28.5 12q18 0 29 -12t11 -28v-110h129zM304 228q93 0 133.5 31t40.5 98q0 66 -40.5 96.5t-133.5 30.5h-129v-256h129z" />
<glyph unicode="&#xdf;" horiz-adv-x="629" d="M418 374q69 -16 110 -67.5t41 -122.5q0 -111 -58 -157.5t-175 -46.5q-23 0 -36.5 12t-13.5 31t13 31t37 12q27 0 42 1t39 7t36.5 18.5t23 37t10.5 60.5q1 70 -46 102.5t-109 34.5q-3 0 -9.5 0.5t-9.5 1.5q-14 2 -23.5 12t-9.5 24q0 30 29 35q52 3 89 31t37 90 q0 32 -12.5 52.5t-37 29t-45.5 11t-54 2.5q-49 0 -77.5 -25.5t-28.5 -69.5v-489q0 -17 -11.5 -29.5t-30.5 -12.5t-31 12.5t-12 29.5v476q0 87 53.5 139.5t143.5 52.5q226 0 226 -175q0 -111 -100 -151z" />
<glyph unicode="&#xe0;" horiz-adv-x="628" d="M295 591l-93 105q-17 20 -15 37t21 25q39 17 64 -29l65 -124q13 -25 -9 -28q-19 -1 -33 14zM514 504q17 0 28 -12t11 -28v-435q0 -17 -11 -29t-28 -12q-18 0 -29 12t-11 29v50q-59 -90 -175 -90q-121 0 -184 67t-63 194t63 194t184 67q114 0 175 -91v44q0 16 11.5 28 t28.5 12zM306 67q140 0 168 100v164q-30 103 -168 103q-91 0 -134 -45t-43 -140q0 -92 43.5 -137t133.5 -45z" />
<glyph unicode="&#xe1;" horiz-adv-x="628" d="M302 577q-22 3 -9 28l65 124q9 17 28 25.5t36 3.5q20 -7 22.5 -24t-11.5 -32l-98 -111q-14 -15 -33 -14zM514 504q17 0 28 -12t11 -28v-435q0 -17 -11 -29t-28 -12q-18 0 -29 12t-11 29v50q-59 -90 -175 -90q-121 0 -184 67t-63 194t63 194t184 67q114 0 175 -91v44 q0 16 11.5 28t28.5 12zM306 67q140 0 168 100v164q-30 103 -168 103q-91 0 -134 -45t-43 -140q0 -92 43.5 -137t133.5 -45z" />
<glyph unicode="&#xe2;" horiz-adv-x="628" d="M192 577q-11 1 -13 10.5t4 17.5l80 124q14 20 36 28q1 0 3 1q8 2 13 2q4 0 12 -2h1q23 -8 38 -29l80 -124q6 -8 4 -17.5t-13 -10.5q-18 -1 -33 14l-89 88l-90 -88q-17 -17 -33 -14zM514 504q17 0 28 -12t11 -28v-435q0 -17 -11 -29t-28 -12q-18 0 -29 12t-11 29v50 q-59 -90 -175 -90q-121 0 -184 67t-63 194t63 194t184 67q114 0 175 -91v44q0 16 11.5 28t28.5 12zM306 67q140 0 168 100v164q-30 103 -168 103q-91 0 -134 -45t-43 -140q0 -92 43.5 -137t133.5 -45z" />
<glyph unicode="&#xe3;" horiz-adv-x="628" d="M196 603q-9 0 -15 7t-6 18q0 38 21 64.5t52 26.5q33 0 72 -25.5t53 -25.5q35 0 41 34q3 15 20 15q21 0 21 -23q0 -38 -22 -66t-53 -28q-32 0 -71 25t-56 25q-27 0 -34 -29q-7 -18 -23 -18zM514 504q17 0 28 -12t11 -28v-435q0 -17 -11 -29t-28 -12q-18 0 -29 12t-11 29 v50q-59 -90 -175 -90q-121 0 -184 67t-63 194t63 194t184 67q114 0 175 -91v44q0 16 11.5 28t28.5 12zM306 67q140 0 168 100v164q-30 103 -168 103q-91 0 -134 -45t-43 -140q0 -92 43.5 -137t133.5 -45z" />
<glyph unicode="&#xe4;" horiz-adv-x="628" d="M207 573q-27 0 -42 15.5t-15 42.5q0 57 57 57q59 0 59 -57q0 -27 -15.5 -42.5t-43.5 -15.5zM420 573q-27 0 -42.5 15.5t-15.5 42.5q0 57 58 57q59 0 59 -57q0 -27 -15.5 -42.5t-43.5 -15.5zM514 504q17 0 28 -12t11 -28v-435q0 -17 -11 -29t-28 -12q-18 0 -29 12t-11 29 v50q-59 -90 -175 -90q-121 0 -184 67t-63 194t63 194t184 67q114 0 175 -91v44q0 16 11.5 28t28.5 12zM306 67q140 0 168 100v164q-30 103 -168 103q-91 0 -134 -45t-43 -140q0 -92 43.5 -137t133.5 -45z" />
<glyph unicode="&#xe5;" horiz-adv-x="628" d="M314 547q-49 0 -76 27.5t-27 76.5q0 50 26.5 76.5t76.5 26.5t77.5 -27t27.5 -76t-28 -76.5t-77 -27.5zM314 705q-26 0 -40 -14.5t-14 -39.5q0 -26 14.5 -40.5t39.5 -14.5q26 0 41 14.5t15 40.5q0 25 -15 39.5t-41 14.5zM514 504q17 0 28 -12t11 -28v-435q0 -17 -11 -29 t-28 -12q-18 0 -29 12t-11 29v50q-59 -90 -175 -90q-121 0 -184 67t-63 194t63 194t184 67q114 0 175 -91v44q0 16 11.5 28t28.5 12zM306 67q140 0 168 100v164q-30 103 -168 103q-91 0 -134 -45t-43 -140q0 -92 43.5 -137t133.5 -45z" />
<glyph unicode="&#xe6;" horiz-adv-x="1014" d="M968 281q1 -17 -10.5 -28t-27.5 -11h-387q1 -90 47 -132.5t140 -42.5q112 0 149 70q23 33 53 16q15 -9 18 -24.5t-6 -30.5q-58 -110 -217 -110q-169 0 -232 115q-26 -50 -76 -82t-120 -32q-121 0 -184 67t-63 194t63 194t184 67q65 0 116.5 -31.5t76.5 -79.5 q58 111 228 111q231 0 248 -230zM546 307h341q-4 64 -47 97.5t-118 33.5q-156 0 -176 -131zM306 67q136 0 166 94q-10 39 -10 89t9 90q-33 94 -165 94q-91 0 -134 -45t-43 -140q0 -92 43.5 -137t133.5 -45z" />
<glyph unicode="&#xe7;" horiz-adv-x="584" d="M519 155q15 -7 19 -23t-4 -30q-55 -106 -199 -114l-28 -37q47 -4 75.5 -29.5t28.5 -64.5q0 -41 -27.5 -65t-74.5 -24q-60 0 -89 25q-21 18 -3 38q17 18 38 4q15 -15 54 -15q49 0 49 37q0 17 -19.5 29t-47.5 12q-6 0 -33 -9q-2 -1 -9 -1q-15 0 -21 9q-17 17 -2 34l49 59 q-108 10 -166 76.5t-58 183.5q0 128 66.5 194.5t196.5 66.5q160 0 217 -109q10 -17 5.5 -32.5t-20.5 -22.5q-31 -14 -53 17q-41 71 -153 69q-95 -2 -139 -45.5t-44 -137.5q0 -93 45 -137t138 -46q117 -2 153 68q24 34 56 20z" />
<glyph unicode="&#xe8;" horiz-adv-x="603" d="M283 591l-93 105q-17 20 -15 37t21 25q39 17 64 -29l65 -124q13 -25 -9 -28q-19 -1 -33 14zM558 279q1 -17 -10.5 -28.5t-28.5 -11.5h-387q3 -89 48.5 -131t138.5 -41q113 0 152 71q23 32 53 15q15 -9 18 -24.5t-7 -29.5q-57 -111 -218 -111q-128 -1 -196.5 67t-68.5 195 q0 261 257 261q115 0 178.5 -59t70.5 -173zM135 304h341q-4 65 -47 98t-118 33q-84 0 -125.5 -31.5t-50.5 -99.5z" />
<glyph unicode="&#xe9;" horiz-adv-x="603" d="M290 577q-22 3 -9 28l65 124q9 17 28 25.5t36 3.5q20 -7 22.5 -24t-11.5 -32l-98 -111q-14 -15 -33 -14zM558 279q1 -17 -10.5 -28.5t-28.5 -11.5h-387q3 -89 48.5 -131t138.5 -41q113 0 152 71q23 32 53 15q15 -9 18 -24.5t-7 -29.5q-57 -111 -218 -111 q-128 -1 -196.5 67t-68.5 195q0 261 257 261q115 0 178.5 -59t70.5 -173zM135 304h341q-4 65 -47 98t-118 33q-84 0 -125.5 -31.5t-50.5 -99.5z" />
<glyph unicode="&#xea;" horiz-adv-x="603" d="M180 577q-11 1 -13 10.5t4 17.5l80 124q14 20 36 28q1 0 3 1q8 2 13 2q4 0 12 -2h1q23 -8 38 -29l80 -124q6 -8 4 -17.5t-13 -10.5q-18 -1 -33 14l-89 88l-90 -88q-17 -17 -33 -14zM558 279q1 -17 -10.5 -28.5t-28.5 -11.5h-387q3 -89 48.5 -131t138.5 -41q113 0 152 71 q23 32 53 15q15 -9 18 -24.5t-7 -29.5q-57 -111 -218 -111q-128 -1 -196.5 67t-68.5 195q0 261 257 261q115 0 178.5 -59t70.5 -173zM135 304h341q-4 65 -47 98t-118 33q-84 0 -125.5 -31.5t-50.5 -99.5z" />
<glyph unicode="&#xeb;" horiz-adv-x="603" d="M195 573q-27 0 -42 15.5t-15 42.5q0 57 57 57q59 0 59 -57q0 -27 -15.5 -42.5t-43.5 -15.5zM408 573q-27 0 -42.5 15.5t-15.5 42.5q0 57 58 57q59 0 59 -57q0 -27 -15.5 -42.5t-43.5 -15.5zM558 279q1 -17 -10.5 -28.5t-28.5 -11.5h-387q3 -89 48.5 -131t138.5 -41 q113 0 152 71q23 32 53 15q15 -9 18 -24.5t-7 -29.5q-57 -111 -218 -111q-128 -1 -196.5 67t-68.5 195q0 261 257 261q115 0 178.5 -59t70.5 -173zM135 304h341q-4 65 -47 98t-118 33q-84 0 -125.5 -31.5t-50.5 -99.5z" />
<glyph unicode="&#xec;" horiz-adv-x="247" d="M137 577q-19 -1 -33 14l-93 105q-17 20 -15 37t21 25q39 17 64 -29l65 -124q13 -25 -9 -28zM149 500q16 -1 27 -13.5t11 -28.5v-427q0 -17 -11.5 -29t-29.5 -12t-30 12t-12 29v391h-31q-17 0 -28 11t-11 28t11 28t28 11h73h1h1h1z" />
<glyph unicode="&#xed;" horiz-adv-x="247" d="M231 758q20 -7 22.5 -24t-11.5 -32l-98 -111q-14 -15 -33 -14q-22 3 -9 28l65 124q9 17 28 25.5t36 3.5zM149 500q16 -1 27 -13.5t11 -28.5v-427q0 -17 -11.5 -29t-29.5 -12t-30 12t-12 29v391h-31q-17 0 -28 11t-11 28t11 28t28 11h73h1h1h1z" />
<glyph unicode="&#xee;" horiz-adv-x="247" d="M255 605q6 -8 4 -17.5t-13 -10.5q-18 -1 -33 14l-89 88l-90 -88q-17 -17 -33 -14q-11 1 -13 10.5t4 17.5l80 124q14 20 36 28l1 1h2q8 2 13 2q4 0 12 -2h1q23 -8 38 -29zM149 500q16 -1 27 -13.5t11 -28.5v-427q0 -17 -11.5 -29t-29.5 -12t-30 12t-12 29v391h-31 q-17 0 -28 11t-11 28t11 28t28 11h73h1h1h1z" />
<glyph unicode="&#xef;" horiz-adv-x="247" d="M75 631q0 -27 -15.5 -42.5t-43.5 -15.5q-27 0 -42 15.5t-15 42.5q0 57 57 57q59 0 59 -57zM229 688q59 0 59 -57q0 -27 -15.5 -42.5t-43.5 -15.5q-27 0 -42.5 15.5t-15.5 42.5q0 57 58 57zM149 500q16 -1 27 -13.5t11 -28.5v-427q0 -17 -11.5 -29t-29.5 -12t-30 12 t-12 29v391h-31q-17 0 -28 11t-11 28t11 28t28 11h73h1h1h1z" />
<glyph unicode="&#xf0;" horiz-adv-x="570" d="M507 357q7 -99 -8 -176q-13 -85 -74 -137.5t-140 -52.5q-93 0 -155 63.5t-62 166.5q0 111 59 175t151 64q84 0 149 -72q-15 121 -83 212l-84 -42q-22 -11 -33 10q-4 9 -1 18t12 14l74 37q-25 25 -55 44q-18 10 -24 27t2 31t26 15.5t36 -9.5q46 -29 84 -74l78 39 q23 10 33 -10q4 -9 1 -18.5t-12 -14.5l-69 -34q83 -119 95 -276zM285 67q60 0 102 42.5t42 112.5q0 76 -41 119t-103 43q-67 0 -105.5 -41.5t-38.5 -120.5q0 -72 40 -113.5t104 -41.5z" />
<glyph unicode="&#xf1;" horiz-adv-x="597" d="M180 603q-9 0 -15 7t-6 18q0 38 21 64.5t52 26.5q33 0 72 -25.5t53 -25.5q35 0 41 34q3 15 20 15q21 0 21 -23q0 -38 -22 -66t-53 -28q-32 0 -71 25t-56 25q-27 0 -34 -29q-7 -18 -23 -18zM330 511q201 0 201 -251v-230q0 -17 -11 -28.5t-29 -11.5q-17 0 -28 11.5 t-11 28.5v222q0 96 -30 138t-103 42q-77 0 -118.5 -52.5t-44.5 -150.5v-198q0 -17 -11 -29t-29 -12q-17 0 -28.5 12t-11.5 29v432q0 17 11.5 29t28.5 12q18 0 29 -12t11 -29v-72q54 120 174 120z" />
<glyph unicode="&#xf2;" horiz-adv-x="630" d="M328 577q-19 -1 -33 14l-93 105q-17 20 -15 37t21 25q39 17 64 -29l65 -124q13 -25 -9 -28zM315 -12q-128 0 -196 67.5t-68 194.5q0 129 67 195t197 66q263 0 263 -261q0 -127 -67.5 -194.5t-195.5 -67.5zM315 67q95 0 140 44.5t45 138.5q0 96 -44 139.5t-141 43.5 t-141.5 -44t-44.5 -139q0 -94 45.5 -138.5t140.5 -44.5z" />
<glyph unicode="&#xf3;" horiz-adv-x="630" d="M302 577q-22 3 -9 28l65 124q9 17 28 25.5t36 3.5q20 -7 22.5 -24t-11.5 -32l-98 -111q-14 -15 -33 -14zM315 -12q-128 0 -196 67.5t-68 194.5q0 129 67 195t197 66q263 0 263 -261q0 -127 -67.5 -194.5t-195.5 -67.5zM315 67q95 0 140 44.5t45 138.5q0 96 -44 139.5 t-141 43.5t-141.5 -44t-44.5 -139q0 -94 45.5 -138.5t140.5 -44.5z" />
<glyph unicode="&#xf4;" horiz-adv-x="630" d="M192 577q-11 1 -13 10.5t4 17.5l80 124q14 20 36 28q1 0 3 1q8 2 13 2q4 0 12 -2h1q23 -8 38 -29l80 -124q6 -8 4 -17.5t-13 -10.5q-18 -1 -33 14l-89 88l-90 -88q-17 -17 -33 -14zM315 511q263 0 263 -261q0 -127 -67.5 -194.5t-195.5 -67.5t-196 67.5t-68 194.5 q0 129 67 195t197 66zM315 67q95 0 140 44.5t45 138.5q0 96 -44 139.5t-141 43.5t-141.5 -44t-44.5 -139q0 -94 45.5 -138.5t140.5 -44.5z" />
<glyph unicode="&#xf5;" horiz-adv-x="630" d="M380 600q-32 0 -71 25t-56 25q-27 0 -34 -29q-7 -18 -23 -18q-9 0 -15 7t-6 18q0 38 21 64.5t52 26.5q33 0 72 -25.5t53 -25.5q35 0 41 34q3 15 20 15q21 0 21 -23q0 -38 -22 -66t-53 -28zM315 -12q-128 0 -196 67.5t-68 194.5q0 129 67 195t197 66q263 0 263 -261 q0 -127 -67.5 -194.5t-195.5 -67.5zM315 67q95 0 140 44.5t45 138.5q0 96 -44 139.5t-141 43.5t-141.5 -44t-44.5 -139q0 -94 45.5 -138.5t140.5 -44.5z" />
<glyph unicode="&#xf6;" horiz-adv-x="630" d="M207 573q-27 0 -42 15.5t-15 42.5q0 57 57 57q59 0 59 -57q0 -27 -15.5 -42.5t-43.5 -15.5zM420 573q-27 0 -42.5 15.5t-15.5 42.5q0 57 58 57q59 0 59 -57q0 -27 -15.5 -42.5t-43.5 -15.5zM315 -12q-128 0 -196 67.5t-68 194.5q0 129 67 195t197 66q263 0 263 -261 q0 -127 -67.5 -194.5t-195.5 -67.5zM315 67q95 0 140 44.5t45 138.5q0 96 -44 139.5t-141 43.5t-141.5 -44t-44.5 -139q0 -94 45.5 -138.5t140.5 -44.5z" />
<glyph unicode="&#xf7;" horiz-adv-x="592" d="M294 376q-27 0 -42.5 15.5t-15.5 42.5q0 58 58 58q28 0 43.5 -15t15.5 -43q0 -27 -15.5 -42.5t-43.5 -15.5zM71 249q0 15 10.5 25t24.5 10h374q14 0 24 -10t10 -25t-10 -24.5t-24 -9.5h-375q-14 0 -24 9.5t-10 24.5zM294 7q-27 0 -42.5 15.5t-15.5 42.5q0 57 58 57 q59 0 59 -57q0 -27 -15.5 -42.5t-43.5 -15.5z" />
<glyph unicode="&#xf8;" horiz-adv-x="630" d="M439 491q139 -53 139 -241q0 -127 -67.5 -194.5t-195.5 -67.5q-34 0 -59 4l-50 -138q-5 -13 -17 -19.5t-25 -1.5q-14 5 -20 18t-1 26l48 132q-140 55 -140 241q0 129 67 195t197 66q33 0 57 -4l48 131q5 13 17.5 19t26.5 1q13 -5 19 -17.5t1 -25.5zM129 250 q0 -130 89 -167l127 349q-10 1 -30 1q-97 0 -141.5 -44t-44.5 -139zM315 67q95 0 140 44.5t45 138.5q0 132 -88 168l-128 -350q10 -1 31 -1z" />
<glyph unicode="&#xf9;" horiz-adv-x="597" d="M279 591l-93 105q-17 20 -15 37t21 25q39 17 64 -29l65 -124q13 -25 -9 -28q-19 -1 -33 14zM491 503q17 0 28.5 -12t11.5 -28v-433q0 -16 -11.5 -28.5t-28.5 -12.5t-28.5 12.5t-11.5 28.5v82q-26 -58 -71.5 -90.5t-105.5 -32.5q-103 0 -150.5 62.5t-47.5 188.5v231 q0 16 11.5 28t28.5 12t28 -12t11 -28v-223q0 -97 28.5 -138.5t100.5 -41.5q77 0 120.5 53t46.5 151v191q0 16 11.5 28t28.5 12z" />
<glyph unicode="&#xfa;" horiz-adv-x="597" d="M286 577q-22 3 -9 28l65 124q9 17 28 25.5t36 3.5q20 -7 22.5 -24t-11.5 -32l-98 -111q-14 -15 -33 -14zM491 503q17 0 28.5 -12t11.5 -28v-433q0 -16 -11.5 -28.5t-28.5 -12.5t-28.5 12.5t-11.5 28.5v82q-26 -58 -71.5 -90.5t-105.5 -32.5q-103 0 -150.5 62.5 t-47.5 188.5v231q0 16 11.5 28t28.5 12t28 -12t11 -28v-223q0 -97 28.5 -138.5t100.5 -41.5q77 0 120.5 53t46.5 151v191q0 16 11.5 28t28.5 12z" />
<glyph unicode="&#xfb;" horiz-adv-x="597" d="M176 577q-11 1 -13 10.5t4 17.5l80 124q14 20 36 28q1 0 3 1q8 2 13 2q4 0 12 -2h1q23 -8 38 -29l80 -124q6 -8 4 -17.5t-13 -10.5q-18 -1 -33 14l-89 88l-90 -88q-17 -17 -33 -14zM491 503q17 0 28.5 -12t11.5 -28v-433q0 -16 -11.5 -28.5t-28.5 -12.5t-28.5 12.5 t-11.5 28.5v82q-26 -58 -71.5 -90.5t-105.5 -32.5q-103 0 -150.5 62.5t-47.5 188.5v231q0 16 11.5 28t28.5 12t28 -12t11 -28v-223q0 -97 28.5 -138.5t100.5 -41.5q77 0 120.5 53t46.5 151v191q0 16 11.5 28t28.5 12z" />
<glyph unicode="&#xfc;" horiz-adv-x="597" d="M191 573q-27 0 -42 15.5t-15 42.5q0 57 57 57q59 0 59 -57q0 -27 -15.5 -42.5t-43.5 -15.5zM404 573q-27 0 -42.5 15.5t-15.5 42.5q0 57 58 57q59 0 59 -57q0 -27 -15.5 -42.5t-43.5 -15.5zM491 503q17 0 28.5 -12t11.5 -28v-433q0 -16 -11.5 -28.5t-28.5 -12.5 t-28.5 12.5t-11.5 28.5v82q-26 -58 -71.5 -90.5t-105.5 -32.5q-103 0 -150.5 62.5t-47.5 188.5v231q0 16 11.5 28t28.5 12t28 -12t11 -28v-223q0 -97 28.5 -138.5t100.5 -41.5q77 0 120.5 53t46.5 151v191q0 16 11.5 28t28.5 12z" />
<glyph unicode="&#xfd;" d="M291 577q-22 3 -9 28l65 124q9 17 28 25.5t36 3.5q20 -7 22.5 -24t-11.5 -32l-98 -111q-14 -15 -33 -14zM548 508q16 -7 21 -22.5t-3 -32.5l-303 -639q-8 -17 -25.5 -22.5t-29.5 0.5q-14 6 -18.5 21.5t3.5 32.5l75 159l-226 448q-8 17 -3 32.5t21 22.5q9 6 25.5 2 t23.5 -18l201 -399l189 399q7 14 23.5 18t25.5 -2z" />
<glyph unicode="&#xfe;" horiz-adv-x="630" d="M331 511q121 0 184 -67t63 -194q0 -126 -63.5 -192.5t-183.5 -66.5q-116 0 -175 90v-248q0 -17 -11 -29t-28 -12q-18 0 -29 12t-11 29v839q0 16 11.5 28t28.5 12t28 -12t11 -28v-252q27 40 72 65.5t103 25.5zM323 68q91 0 134.5 45t43.5 137q0 95 -43.5 139.5 t-134.5 44.5q-138 0 -167 -102v-163q29 -101 167 -101z" />
<glyph unicode="&#xff;" d="M196 573q-27 0 -42 15.5t-15 42.5q0 57 57 57q59 0 59 -57q0 -27 -15.5 -42.5t-43.5 -15.5zM409 573q-27 0 -42.5 15.5t-15.5 42.5q0 57 58 57q59 0 59 -57q0 -27 -15.5 -42.5t-43.5 -15.5zM548 508q16 -7 21 -22.5t-3 -32.5l-303 -639q-8 -17 -25.5 -22.5t-29.5 0.5 q-14 6 -18.5 21.5t3.5 32.5l75 159l-226 448q-8 17 -3 32.5t21 22.5q9 6 25.5 2t23.5 -18l201 -399l189 399q7 14 23.5 18t25.5 -2z" />
<glyph unicode="&#x131;" horiz-adv-x="247" d="M149 500q16 -1 27 -13.5t11 -28.5v-427q0 -17 -11.5 -29t-29.5 -12t-30 12t-12 29v391h-31q-17 0 -28 11t-11 28t11 28t28 11h73h1h1h1z" />
<glyph unicode="&#x152;" horiz-adv-x="1072" d="M975 81q16 0 28 -11t12 -29t-12 -29.5t-28 -11.5h-379q-16 0 -26.5 11t-10.5 26v18q-68 -65 -185 -65q-147 0 -226.5 92t-79.5 269q0 172 80.5 266.5t221.5 94.5q114 0 189 -66v17q0 16 10.5 26.5t26.5 10.5h379q16 0 28 -11.5t12 -29.5t-12 -29.5t-28 -11.5h-335v-222 h282q16 0 28 -11t12 -28t-12 -28.5t-28 -11.5h-282v-236h335zM379 73q77 0 120.5 29t59.5 93v338q-26 49 -69 72t-111 23q-110 0 -169 -69t-59 -208q0 -278 228 -278z" />
<glyph unicode="&#x153;" horiz-adv-x="1077" d="M1031 281q1 -17 -10.5 -28t-28.5 -11h-386q1 -90 46.5 -132.5t139.5 -42.5q111 0 150 70q21 33 53 16q15 -9 18 -24.5t-7 -30.5q-58 -110 -216 -110q-178 0 -238 127q-60 -127 -237 -127q-128 0 -196 67.5t-68 194.5q0 129 67 195t197 66q177 0 236 -121q54 121 231 121 q232 0 249 -230zM608 307h342q-4 64 -47.5 97.5t-118.5 33.5q-156 0 -176 -131zM315 67q95 0 140 44.5t45 138.5q0 96 -44 139.5t-141 43.5t-141.5 -44t-44.5 -139q0 -94 45.5 -138.5t140.5 -44.5z" />
<glyph unicode="&#x178;" horiz-adv-x="636" d="M210 773q-27 0 -42 15.5t-15 42.5q0 57 57 57q59 0 59 -57q0 -27 -15.5 -42.5t-43.5 -15.5zM423 773q-27 0 -42.5 15.5t-15.5 42.5q0 57 58 57q59 0 59 -57q0 -27 -15.5 -42.5t-43.5 -15.5zM541 712q27 0 38 -22t-4 -44l-217 -329v-284q0 -18 -11 -30.5t-29 -12.5 t-29 12.5t-11 30.5v284l-217 329q-15 22 -4 44t38 22q16 0 25 -14l198 -301l199 301q9 14 24 14z" />
<glyph unicode="&#x2000;" horiz-adv-x="481" />
<glyph unicode="&#x2001;" horiz-adv-x="962" />
<glyph unicode="&#x2002;" horiz-adv-x="481" />
<glyph unicode="&#x2003;" horiz-adv-x="962" />
<glyph unicode="&#x2004;" horiz-adv-x="320" />
<glyph unicode="&#x2005;" horiz-adv-x="240" />
<glyph unicode="&#x2006;" horiz-adv-x="160" />
<glyph unicode="&#x2007;" horiz-adv-x="160" />
<glyph unicode="&#x2008;" horiz-adv-x="120" />
<glyph unicode="&#x2009;" horiz-adv-x="192" />
<glyph unicode="&#x200a;" horiz-adv-x="53" />
<glyph unicode="&#x2010;" horiz-adv-x="494" d="M70 265q0 16 11 26.5t28 10.5h277q16 0 27 -10.5t11 -26.5t-11 -26.5t-27 -10.5h-277q-17 0 -28 10.5t-11 26.5z" />
<glyph unicode="&#x2011;" horiz-adv-x="494" d="M70 265q0 16 11 26.5t28 10.5h277q16 0 27 -10.5t11 -26.5t-11 -26.5t-27 -10.5h-277q-17 0 -28 10.5t-11 26.5z" />
<glyph unicode="&#x2012;" horiz-adv-x="494" d="M70 265q0 16 11 26.5t28 10.5h277q16 0 27 -10.5t11 -26.5t-11 -26.5t-27 -10.5h-277q-17 0 -28 10.5t-11 26.5z" />
<glyph unicode="&#x2013;" horiz-adv-x="587" d="M70 265q0 16 11 26.5t28 10.5h369q17 0 28 -10.5t11 -26.5t-11 -26.5t-28 -10.5h-369q-17 0 -28 10.5t-11 26.5z" />
<glyph unicode="&#x2014;" horiz-adv-x="804" d="M70 265q0 16 11 26.5t28 10.5h586q17 0 28 -10.5t11 -26.5t-11 -26.5t-28 -10.5h-586q-17 0 -28 10.5t-11 26.5z" />
<glyph unicode="&#x2018;" horiz-adv-x="274" d="M206 683q-39 -20 -54.5 -34t-18.5 -33q-1 -18 21 -21q39 -6 39 -54q0 -26 -15.5 -40.5t-42.5 -14.5q-57 0 -58 83q-1 65 31.5 99t85.5 38q7 0 11.5 -9t0.5 -14z" />
<glyph unicode="&#x2019;" horiz-adv-x="274" d="M68 508q41 22 56 35t17 32q1 19 -21 22q-39 5 -39 53q0 26 15.5 41t42.5 15q57 0 58 -83q1 -66 -31.5 -100t-85.5 -37q-7 -1 -11.5 8t-0.5 14z" />
<glyph unicode="&#x201a;" horiz-adv-x="274" d="M79 -87q38 19 54 33.5t19 33.5q0 19 -21 22q-40 6 -40 54q0 26 15.5 40.5t43.5 14.5q56 0 57 -83q1 -65 -31.5 -99.5t-85.5 -37.5q-7 -1 -11.5 8t0.5 14z" />
<glyph unicode="&#x201c;" horiz-adv-x="429" d="M206 683q-39 -20 -54.5 -34t-18.5 -33q-1 -18 21 -21q39 -6 39 -54q0 -26 -15.5 -40.5t-42.5 -14.5q-57 0 -58 83q-1 65 31.5 99t85.5 38q7 0 11.5 -9t0.5 -14zM361 683q-39 -20 -54.5 -34t-18.5 -33q-1 -18 21 -21q39 -6 39 -54q0 -26 -15.5 -40.5t-42.5 -14.5 q-57 0 -58 83q-1 65 31.5 99t85.5 38q7 0 11.5 -9t0.5 -14z" />
<glyph unicode="&#x201d;" horiz-adv-x="429" d="M68 508q41 22 56 35t17 32q1 19 -21 22q-39 5 -39 53q0 26 15.5 41t42.5 15q57 0 58 -83q1 -66 -31.5 -100t-85.5 -37q-7 -1 -11.5 8t-0.5 14zM223 508q41 22 56 35t17 32q1 19 -21 22q-39 5 -39 53q0 26 15.5 41t42.5 15q57 0 58 -83q1 -66 -31.5 -100t-85.5 -37 q-7 -1 -11.5 8t-0.5 14z" />
<glyph unicode="&#x201e;" horiz-adv-x="274" d="M207 28q1 -65 -31.5 -99.5t-85.5 -37.5q-7 -1 -11.5 8t0.5 14q38 19 54 33.5t19 33.5q0 19 -21 22q-40 6 -40 54q0 26 15.5 40.5t43.5 14.5q56 0 57 -83z" />
<glyph unicode="&#x2022;" horiz-adv-x="462" d="M229 142q-66 0 -103.5 38.5t-37.5 104.5q0 68 37 105.5t104 37.5q69 0 107 -37.5t38 -105.5q0 -67 -38 -105t-107 -38z" />
<glyph unicode="&#x2026;" horiz-adv-x="685" d="M153 -10q-25 0 -39.5 14.5t-14.5 40.5q0 54 54 54q55 0 55 -54q0 -26 -14.5 -40.5t-40.5 -14.5zM342 -10q-25 0 -39.5 14.5t-14.5 40.5q0 54 54 54q56 0 56 -54q0 -26 -15 -40.5t-41 -14.5zM531 -10q-25 0 -39.5 15t-14.5 40q0 54 54 54q56 0 56 -54q0 -26 -15 -40.5 t-41 -14.5z" />
<glyph unicode="&#x202f;" horiz-adv-x="192" />
<glyph unicode="&#x2039;" horiz-adv-x="306" d="M228 188q18 -18 14 -33q-1 -11 -10 -13t-18 5l-123 80q-16 10 -25 26.5t-5 32.5q3 27 30 45l123 80q9 6 18 4t10 -13q3 -16 -14 -33l-89 -90z" />
<glyph unicode="&#x203a;" horiz-adv-x="306" d="M245 289q4 -16 -5 -33.5t-25 -28.5l-124 -80q-8 -7 -17 -5t-11 13q-2 16 15 33l89 91l-89 90q-16 16 -15 33q1 11 10.5 13t17.5 -4l124 -80q24 -17 30 -42z" />
<glyph unicode="&#x2044;" horiz-adv-x="189" d="M-77 -40q-14 7 -18.5 20t1.5 26l345 740q6 13 18.5 18t26.5 -1q13 -7 17.5 -20t-1.5 -25l-345 -741q-6 -13 -18.5 -18t-25.5 1z" />
<glyph unicode="&#x205f;" horiz-adv-x="240" />
<glyph unicode="&#x20ac;" horiz-adv-x="718" d="M578 79q40 7 53 -23q7 -13 -2.5 -28t-29.5 -22q-50 -16 -106 -16q-245 0 -287 251h-88q-14 0 -24 10t-10 25t10 24.5t25 9.5h80q-1 13 -1 41q0 33 1 48h-81q-14 0 -24 9.5t-10 24.5t10.5 25t24.5 10h89q44 244 285 244q56 0 106 -16q20 -7 29.5 -22t2.5 -28 q-13 -32 -56 -23q-40 11 -82 11q-85 0 -134.5 -40.5t-67.5 -125.5h177q14 0 24 -10t10 -25t-10 -24.5t-24 -9.5h-186q-1 -15 -1 -48q0 -28 1 -41h156q14 0 24 -9.5t10 -24.5t-10.5 -25t-24.5 -10h-147q32 -173 203 -173q45 0 85 11z" />
<glyph unicode="&#x2122;" horiz-adv-x="620" d="M487 701q18 0 18 -16v-175q0 -8 -5.5 -14t-14.5 -6t-14.5 6t-5.5 14v94l-42 -76q-8 -13 -22 -13h-5q-15 0 -21 14l-43 77v-96q0 -8 -5.5 -14t-14.5 -6t-14.5 6t-5.5 14v175q0 16 16 16q11 0 16 -7l75 -135l74 135q5 7 14 7zM221 697q21 0 21 -19q0 -7 -6 -12.5t-14 -5.5 h-42v-149q0 -21 -20 -21t-20 21v149h-41q-21 0 -21 18q0 19 21 19h122z" />
<glyph unicode="&#x25fc;" horiz-adv-x="510" d="M0 510h510v-510h-510v510z" />
<glyph horiz-adv-x="247" d="M123 573q-27 0 -42.5 15.5t-15.5 42.5q0 57 58 57q59 0 59 -57q0 -27 -15.5 -42.5t-43.5 -15.5zM149 500q16 -1 27 -13.5t11 -28.5v-427q0 -17 -11.5 -29t-29.5 -12t-30 12t-12 29v391h-31q-17 0 -28 11t-11 28t11 28t28 11h73h1h1h1z" />
<glyph horiz-adv-x="662" d="M585 74q16 1 25.5 -10t9.5 -26q0 -24 -17 -36t-37 -12h-12q-74 0 -118 38t-44 110v289h-193v-396q0 -17 -11.5 -29t-29.5 -12t-30 12t-12 29v396h-43q-17 0 -28 10.5t-11 26.5t11 26t28 10h43v60q0 84 45.5 126.5t124.5 42.5q72 0 145 -26q26 -10 37 -25q7 -8 7 -22v-156 h103q17 0 28 -10t11 -26t-11 -26.5t-28 -10.5h-103v-231q0 -70 15 -98t66 -28q8 0 17 2t12 2zM199 500h193v138q-45 13 -95 13q-48 0 -72 -19q-26 -21 -26 -74v-58z" />
<glyph horiz-adv-x="445" d="M222 -7q-88 0 -136 66t-48 187q0 117 49 184.5t132 67.5q89 0 138.5 -66.5t49.5 -185.5q0 -121 -48 -187t-137 -66zM222 70q114 0 114 176q0 86 -30 131t-85 44q-54 -1 -83 -46.5t-29 -128.5q0 -176 113 -176z" />
<glyph horiz-adv-x="245" d="M150 498q15 -1 24.5 -12.5t9.5 -25.5v-430q0 -15 -10.5 -26t-27.5 -11t-27.5 11t-10.5 26v378l-38 -18q-13 -6 -27 -1.5t-20 18.5t-1 27.5t18 18.5l90 42q11 5 20 3z" />
<glyph horiz-adv-x="406" d="M344 67q15 0 25 -9t10 -24q0 -14 -10 -24t-25 -10h-280q-15 0 -25 10t-10 24q0 16 12 26q42 44 114 104.5t103.5 97.5t31.5 76q0 42 -28.5 66.5t-75.5 24.5q-58 0 -93 -37q-31 -31 -55 -4q-24 26 6 54q60 57 144 57q77 0 125.5 -44.5t48.5 -118.5q0 -36 -21 -72.5 t-44 -60t-73.5 -68t-74.5 -68.5h195z" />
<glyph horiz-adv-x="380" d="M280 255q62 -38 62 -117q0 -145 -166 -145q-108 0 -147 84q-7 15 1 30t24 19q28 6 41 -22q20 -43 81 -43q57 0 78.5 18t21.5 64q0 77 -95 77q-15 0 -25 9t-11 23v1q0 6 2 12q11 23 34 23q44 0 64 16.5t20 55.5q0 41 -19.5 58t-69.5 17q-53 0 -70 -38q-9 -25 -35 -25 q-18 0 -27.5 13.5t-4.5 31.5q29 81 137 81q154 0 154 -145q0 -65 -50 -98z" />
<glyph horiz-adv-x="421" d="M366 194q15 0 25.5 -10t10.5 -25t-10.5 -25t-25.5 -10h-48v-98q0 -14 -10.5 -25t-26.5 -11q-17 0 -27 11t-10 25v98l-187 1q-10 -1 -23 8q-12 9 -13.5 23.5t7.5 24.5l222 304q10 13 25 13h6q16 0 26.5 -11t10.5 -26v-267h48zM119 194h125v169z" />
<glyph horiz-adv-x="424" d="M229 332q72 0 118 -44.5t46 -116.5q0 -85 -49.5 -131.5t-137.5 -46.5q-104 0 -153 81q-11 19 -7.5 35t17.5 20q32 8 43 -15q24 -52 100 -52q61 0 89.5 25t28.5 81q0 45 -28 74t-73 30q-80 0 -112 -58q-4 -8 -16 -15q-7 -3 -14 -3q-15 0 -25 10t-9 25l14 228q0 3 2 7 q2 7 4 9q10 15 28 15h232q14 0 24.5 -10t10.5 -24t-10 -24t-25 -10h-200l-8 -126q41 36 110 36z" />
<glyph horiz-adv-x="409" d="M225 323q62 0 106 -44.5t44 -123.5q0 -72 -47.5 -116.5t-112.5 -44.5q-50 0 -92.5 28.5t-58.5 77.5l-1 -1q-24 61 -24 147q1 125 49.5 190t134.5 65q74 0 124 -45q16 -14 17.5 -29.5t-10.5 -24.5q-25 -22 -53 3q-25 25 -74 26q-98 3 -117 -161q51 53 115 53zM215 63 q40 0 68 24.5t28 68.5q0 49 -26.5 74t-68.5 25q-40 1 -68.5 -25t-28.5 -75q0 -44 28.5 -68t67.5 -24z" />
<glyph horiz-adv-x="375" d="M354 456q0 -2 -0.5 -5.5t-0.5 -4.5l-3 -9l-196 -424q-6 -13 -20 -18.5t-30 1.5q-15 7 -20 22t2 28l173 375h-205q-15 0 -25 10t-10 25t10 24.5t25 9.5h263q15 0 26 -9.5t11 -24.5z" />
<glyph horiz-adv-x="386" d="M269 268q81 -31 81 -136q0 -67 -42.5 -103t-114.5 -36t-114.5 36.5t-42.5 105.5q0 102 81 133q-64 27 -64 108q0 58 39 90t101 32q63 0 101 -32t38 -90q0 -81 -63 -108zM193 433q-34 0 -53 -16.5t-19 -48.5q0 -35 19.5 -54t52.5 -19t52.5 19t19.5 54q0 32 -19 48.5 t-53 16.5zM193 63q88 0 88 83q0 82 -88 82t-88 -82q0 -83 88 -83z" />
<glyph horiz-adv-x="409" d="M346 395q25 -61 24 -147q-1 -125 -49.5 -190t-134.5 -65q-71 -1 -124 45q-16 14 -17 29.5t11 24.5q23 22 52 -3q27 -25 75 -26q53 -1 79.5 39t35.5 120q-51 -51 -113 -51q-63 0 -107 44.5t-44 123.5q0 72 47.5 116.5t112.5 44.5q50 0 92.5 -28t59.5 -77zM194 239 q40 -1 68.5 24.5t28.5 74.5q0 44 -29 68.5t-68 24.5q-40 0 -67.5 -24.5t-27.5 -69.5q0 -49 26.5 -73.5t68.5 -24.5z" />
<glyph horiz-adv-x="445" d="M222 205q-88 0 -136 66t-48 187q0 117 49 184.5t132 67.5q89 0 138.5 -66.5t49.5 -185.5q0 -121 -48 -187t-137 -66zM222 282q115 0 115 176q0 86 -30 131t-86 44q-54 -1 -82.5 -46.5t-28.5 -128.5q0 -176 112 -176z" />
<glyph horiz-adv-x="252" d="M151 710q14 -2 23.5 -13.5t9.5 -24.5v-430q0 -15 -10.5 -26t-27.5 -11t-27.5 11t-10.5 26v378l-38 -18q-32 -14 -47 17q-6 14 -1 27.5t18 18.5l90 42q11 5 21 3z" />
<glyph horiz-adv-x="406" d="M344 280q15 0 25 -9.5t10 -24.5q0 -14 -10 -24t-25 -10h-280q-15 0 -25 10t-10 24q0 10 7 21q43 46 116 107t105.5 99t32.5 77q0 42 -29 66.5t-75 24.5q-57 0 -94 -37q-30 -30 -55 -4q-22 26 6 54q61 58 145 58q77 -1 125.5 -46t48.5 -118q0 -36 -21 -72.5t-44 -59.5 t-73 -67.5t-74 -68.5h194z" />
<glyph horiz-adv-x="380" d="M280 467q62 -38 62 -117q0 -145 -167 -145q-107 0 -146 84q-7 15 1 30t24 19q28 6 41 -22q20 -43 80 -43q57 0 79 18t22 64q0 77 -95 77q-14 0 -24 9t-11 22v1v1q0 7 3 13q8 22 32 22q44 0 63.5 16.5t19.5 55.5q0 41 -19.5 58t-69.5 17q-54 0 -69 -38q-9 -25 -35 -25 q-17 0 -27 13.5t-5 31.5q29 81 136 81q155 0 155 -145q0 -64 -50 -98z" />
<glyph horiz-adv-x="421" d="M366 409q15 0 25.5 -10t10.5 -25t-11 -25.5t-25 -10.5h-48v-97q0 -15 -10.5 -25.5t-25.5 -10.5q-17 0 -27.5 10.5t-10.5 25.5v98l-184 1q-11 -3 -26 7q-12 9 -13.5 24t7.5 25l222 304q10 13 26 13h6q15 0 25.5 -11t10.5 -26v-267h48zM120 409h124v169z" />
<glyph horiz-adv-x="424" d="M229 544q72 0 118 -44.5t46 -116.5q0 -85 -49 -131.5t-137 -46.5q-105 0 -154 81q-11 19 -7.5 35t17.5 20q32 8 43 -15q24 -52 101 -52q61 0 89 25t28 81q0 45 -27.5 74t-72.5 30q-43 0 -69 -13t-44 -45q-4 -8 -16 -15q-7 -3 -14 -3q-15 0 -25 10t-9 25l14 228q0 3 2 7 q2 7 4 9q10 15 28 15h232q14 0 24.5 -10t10.5 -24t-10 -24t-25 -10h-200l-8 -126q41 36 110 36z" />
<glyph horiz-adv-x="409" d="M225 534q62 0 106 -44.5t44 -123.5q0 -72 -47.5 -116.5t-112.5 -44.5q-50 0 -92.5 28.5t-58.5 77.5l-1 -1q-25 64 -24 147q1 125 49.5 190t134.5 65q74 0 124 -45q16 -14 17.5 -29.5t-10.5 -24.5q-24 -21 -53 3q-25 25 -74 26q-98 3 -117 -161q51 53 115 53zM215 274 q40 0 68 24.5t28 68.5q0 49 -26.5 74t-68.5 25q-40 1 -68.5 -25t-28.5 -75q0 -44 28.5 -68t67.5 -24z" />
<glyph horiz-adv-x="375" d="M354 668q0 -5 -1 -8q0 -5 -3 -11l-195 -424q-7 -13 -21 -18t-29 1q-16 7 -21 22t2 28l174 375h-205q-16 0 -26 10t-10 25t10 24.5t26 9.5h262q16 0 26.5 -9.5t10.5 -24.5z" />
<glyph horiz-adv-x="386" d="M269 480q81 -31 81 -136q0 -67 -42.5 -103t-114.5 -36t-114.5 36.5t-42.5 105.5q0 102 81 133q-64 27 -64 108q0 58 39 90t101 32q63 0 101 -32t38 -90q0 -81 -63 -108zM193 645q-34 0 -53 -16.5t-19 -48.5q0 -35 19.5 -54t52.5 -19t52.5 19t19.5 54q0 32 -19 48.5 t-53 16.5zM193 275q88 0 88 83q0 82 -88 82t-88 -82q0 -83 88 -83z" />
<glyph horiz-adv-x="409" d="M347 605q24 -62 23 -145q-1 -124 -49.5 -189t-134.5 -66q-73 0 -124 46q-33 29 -6 54q24 21 52 -3q27 -25 75 -26q52 -2 79 38.5t37 120.5q-51 -51 -114 -51t-107 44t-44 124q0 72 47.5 116t112.5 44q50 0 93 -28.5t60 -78.5zM194 451q40 0 68.5 25t28.5 74q0 44 -29 69 t-68 25q-40 0 -67.5 -25t-27.5 -70q0 -48 26.5 -73t68.5 -25z" />
</font>
</defs>
</svg>
